<?xml version="1.0" encoding="utf-8"?>
<!-- Generator: Adobe Illustrator 26.0.1, SVG Export Plug-In . SVG Version: 6.00 Build 0)  -->
<svg version="1.1" id="Capa_1" xmlns="http://www.w3.org/2000/svg" xmlns:xlink="http://www.w3.org/1999/xlink" x="0px" y="0px"
	 viewBox="0 0 100 100" style="enable-background:new 0 0 100 100;" xml:space="preserve">
<style type="text/css">
	.st0{fill:#FFFFFF;}
</style>
<g>
	<path class="st0" d="M50,41.83c4.51,0,8.17,3.67,8.17,8.17c0,4.51-3.67,8.17-8.17,8.17c-4.51,0-8.17-3.67-8.17-8.17
		C41.83,45.49,45.49,41.83,50,41.83 M50,40.83c-5.07,0-9.17,4.11-9.17,9.17c0,5.07,4.11,9.17,9.17,9.17c5.07,0,9.17-4.11,9.17-9.17
		C59.17,44.93,55.07,40.83,50,40.83L50,40.83z"/>
	<path class="st0" d="M46.15,48.29h1.78V54h-1.78V48.29z M47.04,45.46c0.57,0,1.03,0.46,1.03,1.03c0,0.57-0.46,1.03-1.03,1.03
		c-0.57,0-1.03-0.46-1.03-1.03C46.01,45.92,46.47,45.46,47.04,45.46"/>
	<path class="st0" d="M52.45,48.15c-0.86,0-1.44,0.47-1.68,0.92h-0.02v-0.78h-1.7V54h1.77v-2.82c0-0.74,0.14-1.47,1.06-1.47
		c0.91,0,0.92,0.85,0.92,1.51V54h1.77v-3.13C54.57,49.33,54.24,48.15,52.45,48.15L52.45,48.15z"/>
</g>
</svg>
