<?xml version="1.0" encoding="utf-8"?>
<!-- Generator: Adobe Illustrator 26.0.1, SVG Export Plug-In . SVG Version: 6.00 Build 0)  -->
<svg version="1.1" id="Capa_1" xmlns="http://www.w3.org/2000/svg" xmlns:xlink="http://www.w3.org/1999/xlink" x="0px" y="0px"
	 viewBox="0 0 100 100" style="enable-background:new 0 0 100 100;" xml:space="preserve">
<style type="text/css">
	.st0{fill:#FFFFFF;}
</style>
<g>
	<path class="st0" d="M50,41.83c4.51,0,8.17,3.67,8.17,8.17s-3.67,8.17-8.17,8.17c-4.51,0-8.17-3.67-8.17-8.17S45.49,41.83,50,41.83
		 M50,40.83c-5.07,0-9.17,4.11-9.17,9.17s4.11,9.17,9.17,9.17c5.07,0,9.17-4.11,9.17-9.17S55.07,40.83,50,40.83L50,40.83z"/>
	<g>
		<path class="st0" d="M50.04,48.29c-0.94,0-1.7,0.76-1.7,1.7s0.76,1.7,1.7,1.7s1.7-0.76,1.7-1.7S50.98,48.29,50.04,48.29z"/>
	</g>
	<g>
		<path class="st0" d="M52.15,44.61h-4.29c-1.78,0-3.23,1.45-3.23,3.23v4.29c0,1.78,1.45,3.23,3.23,3.23h4.29
			c1.78,0,3.23-1.45,3.23-3.23v-4.29C55.38,46.06,53.93,44.61,52.15,44.61z M50.04,52.64c-1.46,0-2.65-1.19-2.65-2.65
			c0-1.46,1.19-2.65,2.65-2.65c1.46,0,2.65,1.19,2.65,2.65C52.69,51.45,51.5,52.64,50.04,52.64z M52.85,47.79
			c-0.35,0-0.63-0.28-0.63-0.63c0-0.35,0.28-0.63,0.63-0.63c0.35,0,0.63,0.28,0.63,0.63C53.48,47.51,53.2,47.79,52.85,47.79z"/>
	</g>
	<g>
		<path class="st0" d="M50.04,51.68c-0.94,0-1.7-0.76-1.7-1.7s0.76-1.7,1.7-1.7s1.7,0.76,1.7,1.7S50.98,51.68,50.04,51.68z"/>
	</g>
</g>
</svg>
