<?xml version="1.0" encoding="utf-8"?>
<!-- Generator: Adobe Illustrator 26.0.1, SVG Export Plug-In . SVG Version: 6.00 Build 0)  -->
<svg version="1.1" id="Capa_1" xmlns="http://www.w3.org/2000/svg" xmlns:xlink="http://www.w3.org/1999/xlink" x="0px" y="0px"
	 viewBox="0 0 100 100" style="enable-background:new 0 0 100 100;" xml:space="preserve">
<style type="text/css">
	.st0{fill:#1C1C1C;}
</style>
<g>
	<path class="st0" d="M21.64,46.88c-0.05-0.13-0.19-0.2-0.33-0.15c-0.13,0.05-0.2,0.19-0.15,0.33c0.29,0.81,0.45,1.65,0.48,2.52
		h-2.11c-0.07-1.68-0.82-3.18-1.98-4.24c0.79-0.22,1.51-0.49,2.14-0.82c0.38,0.45,0.72,0.95,1.01,1.49
		c0.07,0.12,0.22,0.17,0.34,0.11c0.12-0.07,0.17-0.22,0.11-0.34c-1.52-2.86-4.47-4.64-7.71-4.64c-2.33,0-4.51,0.91-6.16,2.55
		c-1.65,1.65-2.55,3.83-2.55,6.16c0,2.33,0.91,4.51,2.55,6.16c1.65,1.65,3.83,2.55,6.16,2.55s4.51-0.91,6.16-2.55
		c1.65-1.65,2.55-3.83,2.55-6.16C22.15,48.81,21.98,47.82,21.64,46.88L21.64,46.88z M19.33,44.12L19.33,44.12
		c-0.64,0.32-1.37,0.59-2.18,0.79c-0.48-1.39-1.15-2.45-1.93-3.09C16.79,42.17,18.22,42.97,19.33,44.12z M13.69,41.64
		c0.55,0.08,1.1,0.4,1.59,0.94c0.45,0.49,0.85,1.16,1.18,1.96c-0.82-0.47-1.77-0.76-2.77-0.8V41.64z M13.18,41.64v2.1
		c-1,0.04-1.95,0.33-2.77,0.8c0.33-0.79,0.73-1.46,1.18-1.96C12.08,42.04,12.63,41.72,13.18,41.64z M11.65,41.82
		c-0.77,0.64-1.44,1.7-1.92,3.09c-0.81-0.2-1.54-0.47-2.18-0.79C8.65,42.99,10.06,42.18,11.65,41.82z M7.2,44.51
		c0.63,0.33,1.34,0.6,2.14,0.82c-1.16,1.06-1.91,2.56-1.98,4.24H5.24C5.3,47.64,6.03,45.88,7.2,44.51z M7.55,55.53
		c0.63-0.32,1.36-0.58,2.18-0.79c0.48,1.39,1.15,2.44,1.92,3.09C10.06,57.48,8.65,56.66,7.55,55.53z M13.18,58.01
		c-0.55-0.08-1.1-0.4-1.59-0.94c-0.45-0.49-0.85-1.16-1.18-1.96c0.83,0.48,1.78,0.76,2.77,0.8V58.01z M8.56,52.55
		c-0.07-0.12-0.22-0.17-0.35-0.1c-0.12,0.07-0.17,0.22-0.1,0.35c0.32,0.58,0.74,1.09,1.21,1.53c-0.79,0.22-1.51,0.49-2.13,0.82
		c-1.17-1.37-1.9-3.13-1.96-5.06h2.11c0.02,0.54,0.11,1.06,0.27,1.57c0.04,0.13,0.19,0.21,0.32,0.17c0.13-0.04,0.21-0.19,0.17-0.32
		c-0.17-0.54-0.26-1.1-0.26-1.67c0-3.08,2.5-5.58,5.58-5.58s5.58,2.5,5.58,5.58c0,3.08-2.5,5.58-5.58,5.58
		C11.42,55.41,9.55,54.31,8.56,52.55z M13.69,58.01v-2.1c1-0.04,1.95-0.33,2.77-0.8c-0.33,0.79-0.73,1.46-1.18,1.96
		C14.79,57.61,14.25,57.93,13.69,58.01z M15.22,57.83c0.77-0.64,1.44-1.7,1.92-3.09c0.81,0.2,1.54,0.47,2.18,0.79
		C18.23,56.66,16.81,57.48,15.22,57.83z M19.68,55.14c-0.63-0.33-1.34-0.6-2.14-0.82c1.16-1.06,1.91-2.56,1.98-4.24h2.11
		C21.58,52.01,20.85,53.77,19.68,55.14z"/>
	<path class="st0" d="M17.05,50.37h-0.49c-0.14,0-0.26,0.11-0.26,0.26c0,0.14,0.11,0.26,0.26,0.26h0.23v2.03
		c0,0.14,0.11,0.26,0.26,0.26c0.14,0,0.26-0.11,0.26-0.26v-2.29C17.3,50.49,17.19,50.37,17.05,50.37z"/>
	<path class="st0" d="M10.49,50.38c-0.51,0-0.92,0.41-0.92,0.92c0,0.51,0.41,0.92,0.92,0.92c0.04,0,0.07,0,0.1-0.01
		c-0.19,0.31-0.41,0.48-0.42,0.49c-0.11,0.08-0.14,0.24-0.05,0.36c0.05,0.07,0.13,0.1,0.2,0.1c0.05,0,0.11-0.02,0.15-0.05
		c0.03-0.02,0.78-0.59,0.91-1.66c0.01-0.05,0.01-0.1,0.01-0.14C11.41,50.8,11,50.38,10.49,50.38z M10.49,51.71
		c-0.22,0-0.41-0.18-0.41-0.41c0-0.22,0.18-0.41,0.41-0.41c0.22,0,0.41,0.18,0.41,0.41C10.9,51.53,10.72,51.71,10.49,51.71z"/>
	<path class="st0" d="M14.98,50.33c-0.51,0-0.92,0.41-0.92,0.92v1.06c0,0.51,0.41,0.92,0.92,0.92c0.51,0,0.92-0.41,0.92-0.92v-1.06
		C15.89,50.74,15.48,50.33,14.98,50.33z M15.38,52.3c0,0.22-0.18,0.41-0.41,0.41c-0.22,0-0.41-0.18-0.41-0.41v-1.06
		c0-0.22,0.18-0.41,0.41-0.41c0.22,0,0.41,0.18,0.41,0.41V52.3z"/>
	<path class="st0" d="M12.73,50.33c-0.51,0-0.92,0.41-0.92,0.92v1.06c0,0.51,0.41,0.92,0.92,0.92c0.51,0,0.92-0.41,0.92-0.92v-1.06
		C13.65,50.74,13.24,50.33,12.73,50.33z M13.14,52.3c0,0.22-0.18,0.41-0.41,0.41c-0.22,0-0.41-0.18-0.41-0.41v-1.06
		c0-0.22,0.18-0.41,0.41-0.41c0.22,0,0.41,0.18,0.41,0.41V52.3z"/>
	<path class="st0" d="M10.55,49.37c0.14,0,0.26-0.11,0.26-0.26v-2.38c0-0.14-0.11-0.26-0.26-0.26c-0.14,0-0.26,0.11-0.26,0.26v2.38
		C10.3,49.26,10.41,49.37,10.55,49.37z"/>
	<path class="st0" d="M12.3,49.37c0.48,0,0.89-0.31,0.96-0.73c0.06-0.32-0.09-0.73-0.67-0.94c-0.3-0.11-0.58-0.23-0.66-0.27
		c-0.06-0.05-0.09-0.12-0.08-0.2c0.01-0.05,0.04-0.17,0.22-0.23c0.36-0.11,0.69,0.15,0.69,0.16c0.11,0.09,0.27,0.08,0.36-0.03
		c0.09-0.11,0.08-0.27-0.03-0.36c-0.02-0.02-0.54-0.45-1.17-0.26c-0.31,0.09-0.53,0.34-0.58,0.64c-0.04,0.28,0.08,0.55,0.32,0.71
		c0.01,0.01,0.02,0.01,0.04,0.02c0.01,0.01,0.34,0.15,0.71,0.29c0.24,0.09,0.37,0.22,0.34,0.37c-0.03,0.15-0.21,0.31-0.46,0.31
		c-0.25,0-0.49-0.1-0.64-0.27c-0.09-0.1-0.26-0.11-0.36-0.02c-0.1,0.09-0.11,0.26-0.02,0.36C11.53,49.21,11.91,49.37,12.3,49.37z"/>
	<path class="st0" d="M15.13,46.48c-0.8,0-1.45,0.65-1.45,1.45c0,0.8,0.65,1.45,1.45,1.45c0.8,0,1.45-0.65,1.45-1.45
		C16.58,47.13,15.93,46.48,15.13,46.48z M15.13,48.86c-0.52,0-0.94-0.42-0.94-0.94s0.42-0.94,0.94-0.94c0.52,0,0.94,0.42,0.94,0.94
		C16.07,48.44,15.65,48.86,15.13,48.86z"/>
	<path class="st0" d="M30.09,48.43c0-0.14,0.17-0.21,0.34-0.21c0.17,0,0.34,0.06,0.34,0.21v1.05l0.82-1.16
		c0.05-0.07,0.11-0.1,0.18-0.1c0.17,0,0.4,0.18,0.4,0.35c0,0.03-0.01,0.08-0.04,0.13l-0.72,0.9l0.9,1.38
		c0.02,0.03,0.03,0.07,0.03,0.11c0,0.17-0.21,0.34-0.41,0.34c-0.09,0-0.18-0.03-0.24-0.13l-0.75-1.14l-0.18,0.24v0.79
		c0,0.14-0.17,0.21-0.34,0.21c-0.17,0-0.34-0.07-0.34-0.21V48.43z"/>
	<path class="st0" d="M32.6,50.41v-1.16c0-0.75,0.47-1.03,1.07-1.03c0.6,0,1.07,0.28,1.07,1.03v1.16c0,0.75-0.47,1.03-1.07,1.03
		S32.6,51.16,32.6,50.41z M34.07,49.25c0-0.3-0.15-0.44-0.39-0.44c-0.24,0-0.39,0.14-0.39,0.44v1.16c0,0.3,0.14,0.44,0.39,0.44
		c0.24,0,0.39-0.14,0.39-0.44V49.25z"/>
	<path class="st0" d="M36.62,50.56c0-0.53-1.38-0.44-1.38-1.46c0-0.65,0.57-0.9,1.12-0.9c0.23,0,0.87,0.04,0.87,0.38
		c0,0.12-0.08,0.36-0.27,0.36c-0.16,0-0.24-0.17-0.6-0.17c-0.31,0-0.44,0.13-0.44,0.26c0,0.44,1.38,0.35,1.38,1.45
		c0,0.63-0.46,0.97-1.09,0.97c-0.57,0-1.05-0.28-1.05-0.57c0-0.15,0.13-0.37,0.3-0.37c0.21,0,0.34,0.32,0.74,0.32
		C36.4,50.85,36.62,50.77,36.62,50.56z"/>
	<path class="st0" d="M39.32,50.02h-0.87v1.18c0,0.14-0.17,0.21-0.34,0.21c-0.17,0-0.34-0.07-0.34-0.21v-2.78
		c0-0.14,0.17-0.21,0.34-0.21c0.17,0,0.34,0.06,0.34,0.21v1.07h0.87v-1.07c0-0.14,0.17-0.21,0.34-0.21c0.17,0,0.34,0.06,0.34,0.21
		v2.78c0,0.14-0.17,0.21-0.34,0.21c-0.17,0-0.34-0.07-0.34-0.21V50.02z"/>
	<path class="st0" d="M41.29,49.55h0.65c0.13,0,0.21,0.13,0.21,0.27c0,0.12-0.06,0.26-0.21,0.26h-0.65v0.74h1.17
		c0.13,0,0.21,0.14,0.21,0.3c0,0.14-0.06,0.29-0.21,0.29H40.9c-0.15,0-0.3-0.07-0.3-0.21v-2.77c0-0.14,0.15-0.21,0.3-0.21h1.55
		c0.14,0,0.21,0.15,0.21,0.29c0,0.16-0.07,0.3-0.21,0.3h-1.17V49.55z"/>
	<path class="st0" d="M43.09,48.43c0-0.11,0.08-0.21,0.21-0.21h0.9c0.6,0,1.07,0.22,1.07,0.93c0,0.49-0.22,0.77-0.53,0.89l0.53,0.97
		c0.02,0.03,0.02,0.06,0.02,0.08c0,0.17-0.23,0.35-0.43,0.35c-0.09,0-0.17-0.03-0.22-0.13l-0.6-1.16h-0.29v1.05
		c0,0.14-0.17,0.21-0.34,0.21c-0.17,0-0.34-0.07-0.34-0.21V48.43z M43.77,48.82v0.81h0.43c0.24,0,0.39-0.1,0.39-0.41
		c0-0.31-0.15-0.41-0.39-0.41H43.77z"/>
	<path class="st0" d="M37.7,41c-4.87,0-8.83,3.96-8.83,8.83s3.96,8.83,8.83,8.83s8.83-3.96,8.83-8.83S42.57,41,37.7,41z M37.7,58.08
		c-4.55,0-8.26-3.7-8.26-8.26s3.7-8.26,8.26-8.26s8.26,3.7,8.26,8.26S42.25,58.08,37.7,58.08z"/>
	<path class="st0" d="M38.68,53.14h-1.96c-0.06,0-0.11,0.03-0.14,0.08c-0.03,0.05-0.03,0.11,0,0.17l0.98,1.7
		c0.03,0.05,0.08,0.08,0.14,0.08s0.11-0.03,0.14-0.08l0.98-1.7c0.03-0.05,0.03-0.11,0-0.17C38.79,53.17,38.74,53.14,38.68,53.14z
		 M37.7,54.67l-0.69-1.2h1.39L37.7,54.67z"/>
	<path class="st0" d="M36.72,46.51h1.96c0.06,0,0.11-0.03,0.14-0.08c0.03-0.05,0.03-0.11,0-0.17l-0.98-1.7
		c-0.06-0.1-0.23-0.1-0.29,0l-0.98,1.7c-0.03,0.05-0.03,0.11,0,0.17C36.6,46.48,36.66,46.51,36.72,46.51z M37.7,44.98l0.69,1.2
		h-1.39L37.7,44.98z"/>
	<path class="st0" d="M34.2,49.1c0.06,0,0.11-0.03,0.14-0.08l0.98-1.7c0.03-0.05,0.03-0.11,0-0.17c-0.03-0.05-0.08-0.08-0.14-0.08
		h-1.96c-0.06,0-0.11,0.03-0.14,0.08c-0.03,0.05-0.03,0.11,0,0.17l0.98,1.7C34.08,49.07,34.14,49.1,34.2,49.1z M34.89,47.4
		l-0.69,1.2l-0.69-1.2H34.89z"/>
	<path class="st0" d="M41.06,50.63l-0.98,1.7c-0.03,0.05-0.03,0.11,0,0.17c0.03,0.05,0.08,0.08,0.14,0.08h1.96
		c0.06,0,0.11-0.03,0.14-0.08c0.03-0.05,0.03-0.11,0-0.17l-0.98-1.7C41.29,50.53,41.12,50.53,41.06,50.63z M40.51,52.25l0.69-1.2
		l0.69,1.2H40.51z"/>
	<path class="st0" d="M34.34,50.63c-0.03-0.05-0.08-0.08-0.14-0.08s-0.11,0.03-0.14,0.08l-0.98,1.7c-0.03,0.05-0.03,0.11,0,0.17
		c0.03,0.05,0.08,0.08,0.14,0.08h1.96c0.06,0,0.11-0.03,0.14-0.08c0.03-0.05,0.03-0.11,0-0.17L34.34,50.63z M33.5,52.25l0.69-1.2
		l0.69,1.2H33.5z"/>
	<path class="st0" d="M40.83,49.74l-1.49-2.59c-0.03-0.05-0.08-0.08-0.14-0.08H36.2c-0.06,0-0.11,0.03-0.14,0.08l-1.49,2.59
		c-0.03,0.05-0.03,0.11,0,0.17l1.49,2.59c0.03,0.05,0.08,0.08,0.14,0.08h2.99c0.06,0,0.11-0.03,0.14-0.08l1.49-2.59
		C40.86,49.86,40.86,49.79,40.83,49.74z M39.1,52.25h-2.8l-1.4-2.42l1.4-2.42h2.8l1.4,2.42L39.1,52.25z"/>
	<path class="st0" d="M43.48,46.49c-0.11-0.19-0.31-0.31-0.53-0.31H39.8l-1.57-2.73c-0.11-0.19-0.31-0.31-0.53-0.31
		c-0.22,0-0.42,0.12-0.53,0.31l-1.57,2.73h-3.15c-0.22,0-0.42,0.12-0.53,0.31c-0.11,0.19-0.11,0.42,0,0.61l1.57,2.73l-1.57,2.73
		c-0.11,0.19-0.11,0.42,0,0.61c0.11,0.19,0.31,0.31,0.53,0.31h3.15l1.57,2.73c0.11,0.19,0.31,0.31,0.53,0.31
		c0.22,0,0.42-0.12,0.53-0.31l1.57-2.73h3.15c0.22,0,0.42-0.12,0.53-0.31c0.11-0.19,0.11-0.42,0-0.61l-1.57-2.73l1.57-2.73
		C43.59,46.91,43.59,46.68,43.48,46.49z M43.19,46.93l-1.62,2.81c-0.03,0.05-0.03,0.11,0,0.17l1.62,2.81c0.05,0.09,0.05,0.19,0,0.28
		c-0.05,0.09-0.14,0.14-0.24,0.14h-3.25c-0.06,0-0.11,0.03-0.14,0.08l-1.62,2.81c-0.05,0.09-0.14,0.14-0.24,0.14
		c-0.1,0-0.19-0.05-0.24-0.14l-1.62-2.81c-0.03-0.05-0.08-0.08-0.14-0.08h-3.25c-0.1,0-0.19-0.05-0.24-0.14
		c-0.05-0.09-0.05-0.19,0-0.28l1.62-2.81c0.03-0.05,0.03-0.11,0-0.17l-1.62-2.81c-0.05-0.09-0.05-0.19,0-0.28
		c0.05-0.09,0.14-0.14,0.24-0.14h3.25c0.06,0,0.11-0.03,0.14-0.08l1.62-2.81c0.05-0.09,0.14-0.14,0.24-0.14s0.19,0.05,0.24,0.14
		l1.62,2.81c0.03,0.05,0.08,0.08,0.14,0.08h3.25c0.1,0,0.19,0.05,0.24,0.14C43.24,46.74,43.24,46.85,43.19,46.93z"/>
	<path class="st0" d="M42.18,47.07h-1.96c-0.06,0-0.11,0.03-0.14,0.08c-0.03,0.05-0.03,0.11,0,0.17l0.98,1.7
		c0.03,0.05,0.08,0.08,0.14,0.08s0.11-0.03,0.14-0.08l0.98-1.7c0.03-0.05,0.03-0.11,0-0.17C42.3,47.1,42.24,47.07,42.18,47.07z
		 M41.2,48.6l-0.69-1.2h1.39L41.2,48.6z"/>
	<path class="st0" d="M57.11,51.56v-1.84h-0.82v1.84h-0.66v-4.21h0.66v1.78h0.82v-1.78h0.66v4.21H57.11z"/>
	<path class="st0" d="M60.17,51.56L60,50.73h-0.98l-0.17,0.83h-0.7l1.04-4.21h0.65l1.02,4.21H60.17z M59.51,48.37l-0.36,1.76h0.72
		L59.51,48.37z"/>
	<path class="st0" d="M62.93,51.34c-0.19,0.18-0.41,0.27-0.73,0.27c-0.39,0-0.65-0.15-0.82-0.36c-0.28-0.33-0.31-0.79-0.31-1.79
		c0-1,0.03-1.46,0.31-1.79c0.17-0.21,0.43-0.36,0.82-0.36c0.32,0,0.55,0.09,0.74,0.27c0.21,0.2,0.33,0.51,0.34,0.89h-0.66
		c-0.01-0.15-0.03-0.31-0.1-0.41c-0.06-0.09-0.15-0.15-0.31-0.15c-0.16,0-0.25,0.07-0.31,0.16c-0.13,0.2-0.15,0.63-0.15,1.4
		s0.02,1.2,0.15,1.4c0.06,0.09,0.15,0.16,0.31,0.16c0.16,0,0.25-0.06,0.31-0.15c0.07-0.11,0.09-0.26,0.1-0.41h0.66
		C63.27,50.82,63.15,51.15,62.93,51.34z"/>
	<path class="st0" d="M65.61,51.34c-0.19,0.18-0.41,0.27-0.73,0.27c-0.39,0-0.65-0.15-0.82-0.36c-0.28-0.33-0.31-0.79-0.31-1.79
		c0-1,0.03-1.46,0.31-1.79c0.17-0.21,0.43-0.36,0.82-0.36c0.32,0,0.55,0.09,0.74,0.27c0.21,0.2,0.33,0.51,0.34,0.89H65.3
		c-0.01-0.15-0.03-0.31-0.1-0.41c-0.06-0.09-0.15-0.15-0.31-0.15s-0.25,0.07-0.31,0.16c-0.13,0.2-0.15,0.63-0.15,1.4
		s0.02,1.2,0.15,1.4c0.06,0.09,0.15,0.16,0.31,0.16s0.25-0.06,0.31-0.15c0.07-0.11,0.09-0.26,0.1-0.41h0.66
		C65.95,50.82,65.82,51.15,65.61,51.34z"/>
	<path class="st0" d="M67.57,49.91h-0.4v1.65h-0.66v-4.21h1.06c0.76,0,1.08,0.4,1.08,1.28C68.66,49.51,68.34,49.91,67.57,49.91z
		 M67.55,47.95h-0.37v1.37h0.37c0.36,0,0.44-0.25,0.44-0.68S67.91,47.95,67.55,47.95z"/>
	<path class="st0" d="M62.07,41c-4.87,0-8.83,3.96-8.83,8.83s3.96,8.83,8.83,8.83c4.87,0,8.83-3.96,8.83-8.83S66.94,41,62.07,41z
		 M62.07,58.08c-4.55,0-8.26-3.7-8.26-8.26s3.7-8.26,8.26-8.26c4.55,0,8.26,3.7,8.26,8.26S66.63,58.08,62.07,58.08z"/>
	<path class="st0" d="M83.34,51.61c-0.39,0-0.65-0.15-0.82-0.36c-0.28-0.33-0.31-0.79-0.31-1.79c0-1,0.03-1.46,0.31-1.79
		c0.17-0.21,0.43-0.36,0.82-0.36c0.33,0,0.57,0.11,0.75,0.28c0.21,0.21,0.31,0.52,0.33,0.88h-0.66c-0.01-0.23-0.05-0.57-0.41-0.57
		c-0.16,0-0.25,0.07-0.31,0.16c-0.13,0.2-0.15,0.63-0.15,1.4s0.02,1.2,0.15,1.4c0.06,0.09,0.15,0.16,0.31,0.16
		c0.29,0,0.41-0.25,0.41-0.54v-0.66h-0.41v-0.54h1.08v1.17C84.42,51.21,83.97,51.61,83.34,51.61z"/>
	<path class="st0" d="M87.19,51.56v-2.63l-0.57,1.73h-0.37l-0.56-1.7v2.6h-0.66v-4.21h0.6l0.82,2.21l0.81-2.21h0.6v4.21H87.19z"/>
	<path class="st0" d="M89.62,49.91h-0.4v1.65h-0.66v-4.21h1.06c0.76,0,1.08,0.4,1.08,1.28C90.7,49.51,90.38,49.91,89.62,49.91z
		 M89.6,47.95h-0.37v1.37h0.37c0.36,0,0.44-0.25,0.44-0.68S89.95,47.95,89.6,47.95z"/>
	<path class="st0" d="M86.45,41c-4.87,0-8.83,3.96-8.83,8.83s3.96,8.83,8.83,8.83s8.83-3.96,8.83-8.83S91.31,41,86.45,41z
		 M86.45,58.08c-4.55,0-8.26-3.7-8.26-8.26s3.7-8.26,8.26-8.26s8.26,3.7,8.26,8.26S91,58.08,86.45,58.08z"/>
</g>
</svg>
