<?xml version="1.0" encoding="utf-8"?>
<!-- Generator: Adobe Illustrator 26.0.1, SVG Export Plug-In . SVG Version: 6.00 Build 0)  -->
<svg version="1.1" id="Capa_1" xmlns="http://www.w3.org/2000/svg" xmlns:xlink="http://www.w3.org/1999/xlink" x="0px" y="0px"
	 viewBox="0 0 100 100" style="enable-background:new 0 0 100 100;" xml:space="preserve">
<style type="text/css">
	.st0{fill:#FFFFFF;}
</style>
<g>
	<g>
		<path class="st0" d="M50.03,41.83c4.51,0,8.17,3.67,8.17,8.17c0,4.51-3.67,8.17-8.17,8.17c-4.51,0-8.17-3.67-8.17-8.17
			C41.86,45.49,45.52,41.83,50.03,41.83 M50.03,40.83c-5.07,0-9.17,4.11-9.17,9.17s4.11,9.17,9.17,9.17c5.07,0,9.17-4.11,9.17-9.17
			S55.1,40.83,50.03,40.83L50.03,40.83z"/>
	</g>
	<g>
		<path class="st0" d="M50.07,48.29c-0.94,0-1.7,0.76-1.7,1.7c0,0.94,0.76,1.7,1.7,1.7c0.94,0,1.7-0.76,1.7-1.7
			C51.77,49.05,51.01,48.29,50.07,48.29z"/>
	</g>
	<g>
		<path class="st0" d="M52.18,44.61h-4.29c-1.78,0-3.23,1.45-3.23,3.23v4.29c0,1.78,1.45,3.23,3.23,3.23h4.29
			c1.78,0,3.23-1.45,3.23-3.23v-4.29C55.41,46.06,53.96,44.61,52.18,44.61z M50.07,52.64c-1.46,0-2.65-1.19-2.65-2.65
			c0-1.46,1.19-2.65,2.65-2.65c1.46,0,2.65,1.19,2.65,2.65C52.72,51.45,51.54,52.64,50.07,52.64z M52.88,47.79
			c-0.35,0-0.63-0.28-0.63-0.63c0-0.35,0.28-0.63,0.63-0.63c0.35,0,0.63,0.28,0.63,0.63C53.51,47.51,53.23,47.79,52.88,47.79z"/>
	</g>
	<g>
		<path class="st0" d="M50.07,51.69c-0.94,0-1.7-0.76-1.7-1.7c0-0.94,0.76-1.7,1.7-1.7c0.94,0,1.7,0.76,1.7,1.7
			C51.77,50.92,51.01,51.69,50.07,51.69z"/>
	</g>
	<g>
		<path class="st0" d="M49.97,7.04c4.51,0,8.17,3.67,8.17,8.17c0,4.05-2.9,7.45-6.9,8.07c-0.01,0-0.66,0.1-1.41,0.1
			c-0.43,0-0.79-0.03-1.14-0.1c-4-0.63-6.89-4.02-6.89-8.07C41.8,10.71,45.46,7.04,49.97,7.04 M49.97,6.04
			c-5.07,0-9.17,4.11-9.17,9.17c0,4.58,3.35,8.37,7.74,9.06c0.42,0.09,0.87,0.11,1.3,0.11c0.85,0,1.57-0.11,1.57-0.11
			c4.39-0.69,7.74-4.48,7.74-9.06C59.14,10.15,55.04,6.04,49.97,6.04L49.97,6.04z"/>
	</g>
	<g>
		<path class="st0" d="M53.54,17.86l0.41-2.65H51.4v-1.72c0-0.73,0.36-1.43,1.49-1.43h1.16V9.8c0,0-1.05-0.18-2.05-0.18
			c-2.1,0-3.46,1.27-3.46,3.57v2.02h-2.33v2.65h2.33v6.41c0.47,0.07,0.95,0.11,1.43,0.11c0.49,0,0.97-0.04,1.43-0.11v-6.41H53.54z"
			/>
	</g>
	<g>
		<path class="st0" d="M49.97,76.61c4.51,0,8.17,3.67,8.17,8.17c0,4.51-3.67,8.17-8.17,8.17c-4.51,0-8.17-3.67-8.17-8.17
			C41.8,80.28,45.46,76.61,49.97,76.61 M49.97,75.61c-5.07,0-9.17,4.11-9.17,9.17c0,5.07,4.11,9.17,9.17,9.17
			c5.07,0,9.17-4.11,9.17-9.17C59.14,79.72,55.04,75.61,49.97,75.61L49.97,75.61z"/>
	</g>
	<path class="st0" d="M46.12,83.08h1.78v5.71h-1.78V83.08z M47.01,80.24c0.57,0,1.03,0.46,1.03,1.03c0,0.57-0.46,1.03-1.03,1.03
		c-0.57,0-1.03-0.46-1.03-1.03C45.98,80.7,46.44,80.24,47.01,80.24"/>
	<g>
		<path class="st0" d="M52.42,82.94c-0.86,0-1.44,0.47-1.68,0.92h-0.02v-0.78h-1.7v5.71h1.77v-2.82c0-0.74,0.14-1.47,1.06-1.47
			c0.91,0,0.92,0.85,0.92,1.51v2.77h1.77v-3.13C54.54,84.12,54.21,82.94,52.42,82.94L52.42,82.94z"/>
	</g>
</g>
</svg>
