<?xml version="1.0" encoding="utf-8"?>
<!-- Generator: Adobe Illustrator 26.0.1, SVG Export Plug-In . SVG Version: 6.00 Build 0)  -->
<svg version="1.1" id="Capa_1" xmlns="http://www.w3.org/2000/svg" xmlns:xlink="http://www.w3.org/1999/xlink" x="0px" y="0px"
	 viewBox="0 0 100 100" style="enable-background:new 0 0 100 100;" xml:space="preserve">
<style type="text/css">
	.st0{fill:#FFFFFF;}
</style>
<g>
	<path class="st0" d="M50,41.83c4.51,0,8.17,3.67,8.17,8.17c0,4.05-2.9,7.45-6.9,8.07c-0.01,0-0.66,0.1-1.41,0.1
		c-0.43,0-0.79-0.03-1.14-0.1c-4-0.63-6.89-4.02-6.89-8.07C41.83,45.49,45.49,41.83,50,41.83 M50,40.83c-5.07,0-9.17,4.11-9.17,9.17
		c0,4.58,3.35,8.37,7.74,9.06c0.42,0.09,0.87,0.11,1.3,0.11c0.85,0,1.57-0.11,1.57-0.11c4.39-0.69,7.74-4.48,7.74-9.06
		C59.17,44.93,55.07,40.83,50,40.83L50,40.83z"/>
	<g>
		<path class="st0" d="M53.57,52.65L53.98,50h-2.54v-1.72c0-0.73,0.36-1.43,1.49-1.43h1.16v-2.26c0,0-1.05-0.18-2.05-0.18
			c-2.1,0-3.46,1.27-3.46,3.57V50h-2.33v2.65h2.33v6.41c0.47,0.07,0.95,0.11,1.43,0.11c0.49,0,0.97-0.04,1.43-0.11v-6.41H53.57z"/>
	</g>
</g>
</svg>
