<?xml version="1.0" encoding="utf-8"?>
<!-- Generator: Adobe Illustrator 26.0.1, SVG Export Plug-In . SVG Version: 6.00 Build 0)  -->
<svg version="1.1" id="Capa_1" xmlns="http://www.w3.org/2000/svg" xmlns:xlink="http://www.w3.org/1999/xlink" x="0px" y="0px"
	 viewBox="0 0 60 235" style="enable-background:new 0 0 60 235;" xml:space="preserve">
<style type="text/css">
	.st0{fill:#FFFFFF;}
</style>
<g>
	<path class="st0" d="M2.3,169.9c-1.1,1.6-1.8,4.7-1.1,7.2c0,0.2,0.4,0,0.4-0.2c0.2-1.6,1.6-5.4,1.6-1.4c0,0,1.8,47.2,6.3,50.6
		c4.7,3.2,10.8,5.6,11,3.2c1.1-5.6-4.1-11.5-2-17.5c0.4-1.4-0.4-1.4-0.9,0.2c-0.7,2.2-1.4,4.7,0.2,11.5c0.4,2,0,2.5-0.9,0.2
		c-1.6-3.6-3.4-11.7-4.1-19.5c-0.4-4.7,6.5-2.2,15,1.6c0,2.9,1.1,14.8,4.1,11.2c0.7-0.9,1.6-2.7,1.8-3.6c0.2-1.4-0.4-0.4-0.7,0
		c-0.4,0.9-0.7,2.5-1.6,1.6c-0.4-0.4,0-1.1,0.2-1.6c0.7-1.1,0.2-4.5,0.9-5.2c1.6-1.6,5.4,0.2,10.8,5.2c2.5,2,6.1,5.1,6.1,3.4
		c0-4-7.9-11.2-11.7-14.2c-3.1-2.5-4.3-2-4.5-6.1c-0.2-2,0-2.7-0.4-3.1c-0.9-0.9-3.4-2.5-4.3-1.6c-0.4,0.4-0.4,1.6-0.4,2.7
		c0,2.5-0.8,4-3,2.6c-0.7-0.3-1.1,0.4-1.1,0.4c-0.7,0.1-0.9-0.7-0.9-0.7c-0.3,0.4-0.8,0.6-1.1,0.5c-0.3-0.1-0.2-0.8-0.8-0.9
		c-0.4-0.1-0.7,0.9-1.5,0.7h0c-0.6-0.3-1-2.2-1.9-2.7c-2.7-1.8-5.2-2.9-5.4-3.8c2.9-7.6,2.9-11,2.2-13.9c-0.4-1.4-0.9-1.6-0.7,0
		c0.3,3.3-0.7,6.2-2,9.1c-0.4-5.2-1.1-12.8-1.4-13.6C10.4,171.2,4.8,166.7,2.3,169.9"/>
	<g>
		<path class="st0" d="M33.8,130.2c0.9,0.8,1.7,1.4,2.3,2.1c1.8,1.9,3.7,3.7,5.2,5.8c1.4,1.9,1,3.6-1.4,4.6
			c-1.3,0.6-2.7,0.8-4.2,1.2c0.4,0.3,0.7,0.5,1,0.8c1.8,1.8,3.7,3.6,5.4,5.5c0.9,1,1.5,2.1,2.1,3.3c0.7,1.2,0.1,2.5-1.3,2.9
			c-2,0.6-3.8,0-5.7-0.5c-1-0.3-2.1-0.7-3.2-0.8c0.6,0.7,1.2,1.3,1.9,2c1.8,1.8,3.6,3.5,5.3,5.3c0.5,0.6,1,1.3,1.3,2
			c0.4,0.8-0.2,2-1.3,2.6c-1.4,0.8-2.9,1.5-4.5,2.4c0.9,0.9,2,1.7,2.9,2.7c1.2,1.4,2.5,2.7,3.5,4.2c1,1.6,0.2,3-1.8,4
			c-1.9,0.9-3.9,0.8-5.7,0.1c-2.2-0.9-4.2-2.1-6.3-3.2c-0.4-0.2-0.8-0.5-1.5-0.9c0.2,1.1,0.4,2,0.6,2.8c0.2,0.7,0.4,1.4,0.7,2.1
			c0.1,0.3,0.4,0.7,0.7,0.9c1.3,0.9,2.6,1.7,3.8,2.6c1.2,0.9,2.3,1.9,3.4,2.9c0.1,0.1,0.2,0.3,0.3,0.4c-1.6,0.7-2.2,0.5-3.1-0.4
			c-1.3-1.2-2.8-2.1-4.3-3.3c-0.4,1.6-1.4,1.6-2.4,1.5c-2.3-0.2-4.3-1.3-6-2.8c-0.9-0.8-1.7-1.8-2.4-2.8c-0.6-0.7-0.3-1.3,0.6-1.4
			c0.6-0.1,1.2,0.1,1.9,0.1c-0.3-1.6-0.5-3.2-0.7-4.8c0,0,0-0.1,0-0.1c0-1.1-0.8-2.4,0.5-3.1c1.5-0.9,3.2-1.4,4.8-0.4
			c1.2,0.7,2.1,1.7,3.2,2.6c1.6,1.3,3.3,2.4,5.4,2.8c0.9,0.2,1.8,0,2.2-0.8c0.5-0.9,0.2-1.8-0.4-2.5c-0.8-1-1.7-2.1-2.7-3
			c-0.6-0.5-1.4-0.9-2.1-1.2c-2.2-1-4-2.5-5.6-4.3c-2.3-2.6-4.4-5.4-5.5-8.7c-0.5-1.4-1-2.9-1.2-4.4c-0.3-1.6,0.7-2.9,2.3-3.3
			c0.4-0.1,1,0.2,1.5,0.5c0.3,0.2,0.5,0.6,0.7,0.9c1.9-1.6,3-1.6,5.3-0.1c1.6,1,3.2,1.9,4.8,2.7c0.5,0.3,1.1,0.4,1.6,0.4
			c1.4,0.1,2.1-0.7,1.8-2.1c-0.3-1.7-1.6-2.7-2.5-4c-0.4-0.6-1.1-1.1-1.6-1.7c-1-1.4-2.8-1.3-4.1-2.2c-1.4-1-2.9-1.9-4.1-3.1
			c-2.2-2.2-4-4.8-5.3-7.8c-0.3-0.8-0.5-1.8-0.5-2.7c0-0.7,0.3-1.6,0.8-1.9c0.8-0.6,1.7,0,2.3,0.6c0.6,0.6,1.1,1.3,1.6,2
			c1.8,2.7,3.6,5.4,5.5,8c1.4,1.8,3.2,3,5.6,2.9c1.3-0.1,1.4-0.6,1.2-1.8c-0.8-3.6-3.7-5.3-6.3-7.3c-2.1-1.5-4.2-3.1-6.3-4.6
			c-0.7-0.5-0.7-1,0-1.6c1.7-1.4,3.4-1.1,5.2-0.3c2.9,1.3,5.8,2.5,8.7,3.7c0.3,0.1,0.5,0.2,0.9,0c-0.4-0.5-0.9-0.9-1.3-1.4
			c-0.9-1-1.9-1.9-2.7-3c-1.1-1.7-3.1-1.7-4.5-2.9c-1.4-1.1-2.8-2.1-4-3.3c-2.4-2.6-4.4-5.4-5.6-8.8c-0.5-1.4-0.9-2.7-1.2-4.1
			c-0.3-1.7,0.5-2.9,2.1-3.5c0.7-0.3,1.2-0.2,1.7,0.5c0.2,0.3,0.5,0.6,0.7,0.9c1.9-1.7,3-1.6,5.3-0.1c1.6,1,3.2,1.9,4.8,2.7
			c0.5,0.2,1,0.3,1.5,0.4c1.5,0.2,2.4-0.7,1.8-2.1c-0.6-1.4-1.5-2.6-2.4-3.8c-0.6-0.8-1.4-1.6-2.2-2.3c-0.9-0.7-1.9-1.4-2.8-2
			c-1.1,1.9-2.6,1.6-5,0.7c-2.6-1-4.6-2.8-6.1-5.1c-0.4-0.6-0.1-1.2,0.7-1.3c0.6-0.1,1.2,0.1,2,0.1c-0.2-1.2-0.4-2.3-0.5-3.5
			c-0.1-1-0.2-2.1-0.4-3.1c-0.1-0.8,0.2-1.3,0.9-1.6c2.2-1.2,4.5-0.8,6.2,1c1.9,1.8,4,3.5,6.6,4.1c1.2,0.3,2.3,0,2.7-0.7
			c0.4-0.7,0.2-1.8-0.6-2.7c-1.4-1.5-2.8-3-4.2-4.4c-0.2-0.2-0.5-0.4-0.8-0.5c-3-0.6-5.4-2.1-7.5-4.2c-2.5-2.5-4.2-5.4-4.7-8.9
			c-0.1-1.3,0.3-2.5,1.1-2.8c1-0.4,1.9-0.2,2.7,0.8c0.8-1.1,1.8-1.6,3.1-1.6c2.2-0.1,4.3,0.4,6.4,1.2c0.6,0.2,1.2,0.4,1.8,0.6
			c0.1-0.1,0.2-0.1,0.3-0.2c-0.2-0.7-0.3-1.6-0.7-2.1c-1-1.2-2.1-2.4-3.8-3c-3.1-1.1-5.9-2.7-8-5.4c-0.5-0.6-0.5-2.7,0-3.3
			c0.6-0.7,1.4-0.7,2.1-0.3c1.2,0.7,2.3,1.4,3.4,2.1c1.7,1.1,3.3,2.3,5,3.4c0.8,0.5,1.5,0.5,2.4,0c-1.1-1-2.3-1.9-3.4-2.8
			c-1.8-1.5-3.8-2.9-5.5-4.5c-2-1.9-3.9-3.9-5.8-6c-0.5-0.5-0.8-1.4-1-2.1c-0.1-0.8,0.2-1.4,1-1.8c2-0.9,3.8,0,5.5,0.8
			c2.1,1,4,2.1,6,3.2c0.1,0.1,0.3,0.1,0.6,0c-0.8-0.8-1.6-1.7-2.4-2.5c-1.8-1.8-3.7-3.6-5.5-5.4c-1.4-1.4-2.8-2.9-4.2-4.4
			c-0.8-0.8-0.8-1,0.2-1.5c0.3-0.1,0.5-0.2,0.8-0.4c2.1-1.4,3.9-0.9,5.8,0.4c1.7,1.3,3.5,2.4,5.3,3.5c1,0.6,2.2,1.2,3.4,0.7
			c1.1-0.4,1.4-1.3,0.7-2.2c-1.6-2.1-3.1-4.1-4.8-6.1c-0.3-0.3-0.8-0.5-1.3-0.7c-3.2-1-5.9-2.7-8.1-5.2c-1.7-1.8-3-3.9-3.2-6.4
			c0-0.6-0.1-1.3,0-1.9c0.3-2,1.5-2.8,3.4-2.6c2,0.3,3.8,1.2,5.2,2.7c2.2,2.2,3.9,4.7,5,7.5c0.7,1.7,2,2.3,3.8,1.7
			c1.3-0.4,2.1-2,1.9-3.6c-0.3-1.7-1.1-3-2.2-4.3c-1.3-1.6-2.7-3.1-4.1-4.6c-0.4-0.5-1-0.9-1.5-1.3c0.7-0.7,1.4-0.9,2.1-0.4
			c1.4,1,2.9,2,4.3,3.1c2.4,2,4.5,4.2,5.9,7c0.9,1.7,1.4,3.7,0.5,5.6c-0.7,1.5-2.1,2.4-3.7,2.8c-1.4,0.4-2.8,0.6-4.4,0.9
			c0.8,0.9,1.6,1.7,2.4,2.6c1.6,1.8,3.1,3.6,4.6,5.4c0.4,0.5,0.8,1,1,1.6c1.1,2.3,0.1,3.5-2.3,3.9c-1.9,0.3-3.7-0.3-5.4-1
			c-1.7-0.7-3.4-1.5-5.1-2.3c-0.1,0-0.3-0.1-0.5,0.1c1,0.9,1.9,1.7,2.9,2.6c1.9,1.7,3.9,3.3,5.8,4.9c0.8,0.6,1.6,1.2,2.3,1.9
			c0.7,0.7,1.4,1.4,1.9,2.3c0.6,1-0.6,2.5-2,2.7c-1.9,0.2-3.6-0.5-5.3-1.3c-2.1-1-4.1-2-6.2-3c-0.2-0.1-0.5-0.2-0.7-0.2
			c-0.2,0-0.6,0.1-0.6,0.2c-0.1,0.2,0,0.5,0.2,0.6c1,0.8,1.9,1.6,2.9,2.3c1.9,1.4,3.9,2.8,5.9,4.2c1.3,0.9,2.7,1.8,4.1,2.7
			c0.8,0.5,1.5,1.1,1.4,2.2c-0.1,1.1-0.8,1.7-1.7,1.9c-1.7,0.4-3.3,0.8-4.9,1.2c0.5,0.8,1.2,1.6,1.7,2.6c0.4,0.9,0.6,2,0.9,3
			c0.1,0.4,0.2,0.9,0.5,1.2c1.6,1.3,2.8,2.8,3.7,4.7c1,2.1,0.4,4.6-1.6,5.8c-1.9,1.1-4,1.6-6.5,1.8c1.2,1,2.2,1.9,3.2,2.7
			c2,1.7,3.9,3.5,5.2,5.8c0.9,1.5,0,3.4-2,4.1c-2.4,0.9-4.8,0.5-7.1-0.5c-1.8-0.8-3.4-1.9-5.1-2.9c-0.3-0.2-0.7-0.4-1.4-0.8
			c0.3,1.2,0.6,2.2,0.8,3.1c0,0.1,0.2,0.2,0.2,0.3c0,2,1.6,2.6,3,3.5c1.3,0.9,2.4,1.9,3.6,3c2.1,1.9,4.2,3.7,6.1,5.8
			c1.3,1.4,2.2,3,3.2,4.6c0.5,0.8-0.5,2.2-1.6,2.5c-1.9,0.6-3.7,0.1-5.5-0.5c-1.1-0.3-2.1-0.7-3.3-0.9c0.6,0.7,1.2,1.3,1.9,2
			c1.8,1.8,3.6,3.5,5.3,5.3c0.5,0.6,1,1.3,1.3,2c0.4,0.8-0.2,2-1.3,2.6c-1.5,0.8-3,1.6-4.6,2.4c0.8,0.9,1.7,2,2.7,3
			c1.3,1.3,2.7,2.5,3.8,3.9c1.2,1.5,2.9,2.1,4.4,3c3.6,2,7,4.1,9.9,7.1c0.7,0.7,1.1,1.8,1.6,2.7c-0.7,1.6-1.9,1.5-3.7,0.7
			s-3.7-1.8-5.3-3.1c-2.4-1.9-4.6-4.1-7-6.2c-0.7-0.6-1.7-1-2.6-1.4c-2-0.9-4.1-1.7-6.1-2.4C34.3,130.3,34.2,130.3,33.8,130.2z
			 M25.8,106c-0.1,0-0.1,0.1-0.2,0.2c0,0.2,0.1,0.3,0.1,0.5c1.1,2.4,2.1,4.8,3.4,7c1,1.6,2.3,3.1,3.6,4.4c1.1,1.1,2.7,1.5,4.4,1.4
			c1.3-0.1,1.7-0.8,1.1-1.8c-0.4-0.8-1-1.6-1.6-2.2c-1.9-1.8-3.9-3.6-5.9-5.3C29.2,108.6,27.5,107.3,25.8,106z M25.5,152
			c0.2,0.7,0.2,1,0.4,1.3c1.1,2.2,2.1,4.6,3.4,6.7c1,1.6,2.2,3,3.6,4.2c1.2,1.1,2.7,1.5,4.4,1.4c1.3-0.1,1.7-0.8,1.1-1.8
			c-0.4-0.8-1-1.6-1.6-2.2c-1.9-1.8-3.9-3.6-5.9-5.3C29.2,154.8,27.5,153.5,25.5,152z M26.2,67.8C26.1,67.9,26.1,68,26,68
			c1.3,1.6,2.4,3.2,3.8,4.6c1.7,1.7,4,2.6,6.4,2.8c2,0.1,3-1,2.7-2.9c-0.2-1.4-1.4-2.2-2.3-3.1c-0.2-0.1-0.6-0.1-0.8,0
			c-1.9,0.7-3.7,0.5-5.5-0.1C28.9,68.8,27.6,68.3,26.2,67.8z M30.9,19.1c-0.3-0.6-0.3-0.9-0.5-1.2c-1.5-2.3-3.1-4.4-5.5-5.7
			c-0.6-0.4-1.4-1.1-2-0.3c-0.3,0.4,0.1,1.5,0.5,2.1c1.2,1.7,2.8,3.1,4.7,4C29,18.3,29.8,18.6,30.9,19.1z"/>
	</g>
</g>
</svg>
