<?xml version="1.0" encoding="utf-8"?>
<!-- Generator: Adobe Illustrator 26.0.1, SVG Export Plug-In . SVG Version: 6.00 Build 0)  -->
<svg version="1.1" id="Capa_1" xmlns="http://www.w3.org/2000/svg" xmlns:xlink="http://www.w3.org/1999/xlink" x="0px" y="0px"
	 viewBox="0 0 100 100" style="enable-background:new 0 0 100 100;" xml:space="preserve">
<style type="text/css">
	.st0{fill:#FFFFFF;}
</style>
<path class="st0" d="M91.45,17.47c-2.21-1.58-6.63-2.53-10.11-1.58c-0.32,0,0,0.63,0.32,0.63c2.21,0.32,7.58,2.21,1.89,2.21
	c0,0-66.35,2.53-71.08,8.85c-4.42,6.63-7.9,15.17-4.42,15.48c7.9,1.58,16.11-5.69,24.64-2.84c1.9,0.63,1.9-0.63-0.32-1.26
	c-3.16-0.95-6.63-1.89-16.11,0.32c-2.84,0.63-3.48,0-0.32-1.26c5.05-2.21,16.43-4.74,27.49-5.69c6.63-0.63,3.16,9.16-2.21,21.17
	c-4.11,0-20.85,1.58-15.8,5.69c1.26,0.95,3.79,2.21,5.06,2.53c1.89,0.32,0.63-0.63,0-0.95c-1.26-0.63-3.48-0.95-2.21-2.21
	c0.63-0.63,1.58,0,2.21,0.32c1.58,0.95,6.32,0.32,7.27,1.26c2.21,2.21-0.32,7.58-7.27,15.17c-2.77,3.46-7.23,8.53-4.74,8.53
	c5.62,0,15.8-11.06,19.9-16.43c3.48-4.42,2.84-6,8.53-6.32c2.84-0.32,3.79,0,4.42-0.63c1.26-1.27,3.48-4.74,2.21-6.01
	c-0.63-0.63-2.21-0.63-3.79-0.63c-3.52,0-5.67-1.09-3.7-4.27c0.45-1.03-0.51-1.59-0.51-1.59c-0.19-1.05,0.97-1.3,0.97-1.3
	c-0.56-0.41-0.8-1.08-0.72-1.5c0.08-0.43,1.08-0.3,1.23-1.1c0.11-0.59-1.31-0.97-1.03-2.1c0-0.01,0.01-0.02,0.01-0.02
	c0.39-0.84,3.15-1.47,3.74-2.65c2.53-3.79,4.11-7.27,5.37-7.58c10.74,4.11,15.48,4.11,19.59,3.16c1.89-0.63,2.21-1.26,0-0.95
	c-4.58,0.43-8.71-1.02-12.73-2.77c7.32-0.61,18.02-1.56,19.05-1.97C89.55,28.84,95.87,20.94,91.45,17.47"/>
</svg>
