<?xml version="1.0" encoding="utf-8"?>
<!-- Generator: Adobe Illustrator 26.0.1, SVG Export Plug-In . SVG Version: 6.00 Build 0)  -->
<svg version="1.1" id="Capa_1" xmlns="http://www.w3.org/2000/svg" xmlns:xlink="http://www.w3.org/1999/xlink" x="0px" y="0px"
	 viewBox="0 0 19 19" style="enable-background:new 0 0 19 19;" xml:space="preserve">
<style type="text/css">
	.st0{fill:#FFFFFF;}
</style>
<g>
	<path class="st0" d="M9.5,1.3c4.5,0,8.2,3.7,8.2,8.2c0,4.5-3.7,8.2-8.2,8.2C5,17.7,1.3,14,1.3,9.5C1.3,5,5,1.3,9.5,1.3 M9.5,0.3
		c-5.1,0-9.2,4.1-9.2,9.2c0,5.1,4.1,9.2,9.2,9.2c5.1,0,9.2-4.1,9.2-9.2C18.7,4.4,14.6,0.3,9.5,0.3L9.5,0.3z"/>
	<path class="st0" d="M5.7,7.8h1.8v5.7H5.7V7.8z M6.5,5c0.6,0,1,0.5,1,1s-0.5,1-1,1s-1-0.5-1-1C5.5,5.4,6,5,6.5,5"/>
	<path class="st0" d="M12,7.7c-0.9,0-1.4,0.5-1.7,0.9h0V7.8H8.5v5.7h1.8v-2.8c0-0.7,0.1-1.5,1.1-1.5c0.9,0,0.9,0.8,0.9,1.5v2.8h1.8
		v-3.1C14.1,8.8,13.7,7.7,12,7.7L12,7.7z"/>
</g>
</svg>
