<?xml version="1.0" encoding="utf-8"?>
<!-- Generator: Adobe Illustrator 26.0.1, SVG Export Plug-In . SVG Version: 6.00 Build 0)  -->
<svg version="1.1" id="Capa_1" xmlns="http://www.w3.org/2000/svg" xmlns:xlink="http://www.w3.org/1999/xlink" x="0px" y="0px"
	 viewBox="0 0 19 19" style="enable-background:new 0 0 19 19;" xml:space="preserve">
<style type="text/css">
	.st0{fill:#FFFFFF;}
</style>
<g>
	<path class="st0" d="M9.5,1.3c4.5,0,8.2,3.7,8.2,8.2s-3.7,8.2-8.2,8.2C5,17.7,1.3,14,1.3,9.5S5,1.3,9.5,1.3 M9.5,0.3
		c-5.1,0-9.2,4.1-9.2,9.2s4.1,9.2,9.2,9.2c5.1,0,9.2-4.1,9.2-9.2S14.6,0.3,9.5,0.3L9.5,0.3z"/>
	<g>
		<path class="st0" d="M9.5,7.8c-0.9,0-1.7,0.8-1.7,1.7s0.8,1.7,1.7,1.7s1.7-0.8,1.7-1.7S10.5,7.8,9.5,7.8z"/>
	</g>
	<g>
		<path class="st0" d="M11.7,4.1H7.4c-1.8,0-3.2,1.5-3.2,3.2v4.3c0,1.8,1.5,3.2,3.2,3.2h4.3c1.8,0,3.2-1.5,3.2-3.2V7.3
			C14.9,5.6,13.4,4.1,11.7,4.1z M9.5,12.1c-1.5,0-2.7-1.2-2.7-2.7c0-1.5,1.2-2.7,2.7-2.7c1.5,0,2.7,1.2,2.7,2.7
			C12.2,11,11,12.1,9.5,12.1z M12.3,7.3c-0.3,0-0.6-0.3-0.6-0.6C11.7,6.3,12,6,12.3,6C12.7,6,13,6.3,13,6.7C13,7,12.7,7.3,12.3,7.3z
			"/>
	</g>
	<g>
		<path class="st0" d="M9.5,11.2c-0.9,0-1.7-0.8-1.7-1.7s0.8-1.7,1.7-1.7s1.7,0.8,1.7,1.7S10.5,11.2,9.5,11.2z"/>
	</g>
</g>
</svg>
