<svg width="23" height="17" viewBox="0 0 23 17" fill="none" xmlns="http://www.w3.org/2000/svg">
<path d="M19.6584 0.0325286H3.31043C2.89189 0.00622817 2.47251 0.0670873 2.07706 0.211517C1.68162 0.355946 1.31828 0.581012 1.00822 0.873419C0.698159 1.16583 0.447671 1.51965 0.27184 1.91397C0.0960082 2.30829 -0.00171885 2.73512 -0.015625 3.16924V13.9121C0.000324609 14.3448 0.0997011 14.7699 0.276436 15.1623C0.453171 15.5547 0.703735 15.9066 1.01358 16.1973C1.32342 16.488 1.68627 16.7116 2.0807 16.8551C2.47514 16.9985 2.89317 17.0588 3.31043 17.0325H19.6584C20.0756 17.0588 20.4937 16.9985 20.8881 16.8551C21.2825 16.7116 21.6454 16.488 21.9552 16.1973C22.2651 15.9066 22.5158 15.5547 22.6926 15.1623C22.8693 14.7699 22.9685 14.3448 22.9844 13.9121V3.13674C22.9665 2.70541 22.8658 2.2821 22.6882 1.89155C22.5105 1.501 22.2595 1.15102 21.9499 0.862036C21.6402 0.573056 21.2781 0.350876 20.8847 0.208454C20.4912 0.0660315 20.0744 0.00622278 19.6584 0.0325286ZM19.6584 1.52775C19.7939 1.51089 19.9308 1.51089 20.0663 1.52775L13.1631 8.89008C12.9435 9.1192 12.6819 9.3005 12.3936 9.42331C12.1053 9.54612 11.7962 9.60795 11.4845 9.60519C11.175 9.60855 10.8681 9.54692 10.5823 9.42402C10.2964 9.30111 10.0376 9.11947 9.82138 8.89008L2.9182 1.52775C3.04843 1.51075 3.1802 1.51075 3.31043 1.52775H19.6584ZM21.3998 13.9121C21.3755 14.3663 21.1787 14.7921 20.8525 15.0965C20.5262 15.401 20.097 15.5595 19.6584 15.5373H3.31043C2.87182 15.5595 2.44258 15.401 2.11633 15.0965C1.79007 14.7921 1.59331 14.3663 1.56897 13.9121V3.13674C1.56541 2.92188 1.6141 2.70952 1.71031 2.51914L8.629 9.89773C9.0011 10.2897 9.44598 10.5998 9.93667 10.8093C10.4274 11.0187 10.9538 11.1233 11.4845 11.1167C12.0173 11.1218 12.5456 11.0166 13.0386 10.8073C13.5317 10.598 13.9794 10.2887 14.3555 9.89773L21.2744 2.51914C21.3582 2.71341 21.4009 2.92397 21.3998 3.13674V13.9121Z" fill="white"/>
</svg>
