<?xml version="1.0" encoding="utf-8"?>
<!-- Generator: Adobe Illustrator 26.0.1, SVG Export Plug-In . SVG Version: 6.00 Build 0)  -->
<svg version="1.1" id="Capa_1" xmlns="http://www.w3.org/2000/svg" xmlns:xlink="http://www.w3.org/1999/xlink" x="0px" y="0px"
	 viewBox="0 0 30 30" style="enable-background:new 0 0 30 30;" xml:space="preserve">
<style type="text/css">
	.st0{fill-rule:evenodd;clip-rule:evenodd;fill:#FFFFFF;}
</style>
<g>
	<path class="st0" d="M3.1,6.5c0-0.9,0.8-1.7,1.7-1.7h20.4c0.9,0,1.7,0.8,1.7,1.7c0,0.9-0.8,1.7-1.7,1.7H4.8
		C3.9,8.2,3.1,7.4,3.1,6.5z"/>
	<path class="st0" d="M3.1,15c0-0.9,0.8-1.7,1.7-1.7h20.4c0.9,0,1.7,0.8,1.7,1.7c0,0.9-0.8,1.7-1.7,1.7H4.8
		C3.9,16.7,3.1,15.9,3.1,15z"/>
	<path class="st0" d="M3.1,23.5c0-0.9,0.8-1.7,1.7-1.7h20.4c0.9,0,1.7,0.8,1.7,1.7c0,0.9-0.8,1.7-1.7,1.7H4.8
		C3.9,25.2,3.1,24.4,3.1,23.5z"/>
</g>
</svg>
