<svg id="Capa_1" data-name="Capa 1" xmlns="http://www.w3.org/2000/svg" viewBox="0 0 480.97 393.52"><defs><style>.cls-1{fill:#fff;}</style></defs><path class="cls-1" d="M481.85,14.52c-12.33-9.1-37-14.56-56.29-9.1-1.77,0,0,3.64,1.76,3.64,12.33,1.82,42.21,12.77,10.55,12.77,0,0-369.43,14.56-395.81,51-24.68,38.3-44,87.38-24.68,89.19,44,9.11,89.71-32.76,137.22-16.38,10.55,3.65,10.55-3.64-1.77-7.29-17.59-5.46-37-10.9-89.71,1.83-15.84,3.65-19.35,0-1.77-7.29,28.16-12.76,91.48-27.3,153.06-32.76,37-3.63,17.58,52.79-12.34,122-22.86,0-116.1,9.09-87.95,32.76,7,5.46,21.11,12.76,28.15,14.56,10.54,1.83,3.51-3.64,0-5.47-7-3.63-19.35-5.46-12.33-12.77,3.52-3.63,8.78,0,12.33,1.83,8.79,5.45,35.19,1.82,40.45,7.28,12.33,12.76-1.75,43.68-40.45,87.37-15.42,19.95-40.25,49.14-26.39,49.14,31.31,0,88-63.7,110.82-94.65,19.36-25.52,15.83-34.59,47.49-36.4,15.83-1.83,21.12,0,24.67-3.63,7-7.29,19.36-27.3,12.34-34.61-3.52-3.61-12.34-3.61-21.12-3.61-19.57,0-31.53-6.28-20.56-24.64a7.42,7.42,0,0,0,.27-5.13,7.18,7.18,0,0,0-3.12-4c-1.08-6.05,5.41-7.51,5.41-7.51-3.11-2.37-4.47-6.2-4-8.66s6-1.75,6.85-6.34c.63-3.37-7.29-5.58-5.73-12.09,0,0,0-.12.07-.13,2.18-4.86,17.57-8.51,20.83-15.25C304.17,118.28,313,98.25,320,96.44c59.82,23.65,86.2,23.65,109.06,18.19,10.55-3.64,12.34-7.27,0-5.45-25.51,2.46-48.46-5.89-70.87-16,40.76-3.53,100.33-9,106.05-11.34,7.05-1.83,42.23-47.33,17.6-67.35" transform="translate(-9.51 -3.24)"/></svg>