<?xml version="1.0" encoding="utf-8"?>
<!-- Generator: Adobe Illustrator 26.0.1, SVG Export Plug-In . SVG Version: 6.00 Build 0)  -->
<svg version="1.1" id="Capa_1" xmlns="http://www.w3.org/2000/svg" xmlns:xlink="http://www.w3.org/1999/xlink" x="0px" y="0px"
	 viewBox="0 0 481 393.5" style="enable-background:new 0 0 481 393.5;" xml:space="preserve">
<style type="text/css">
	.st0{fill:#DA3638;}
</style>
<path class="st0" d="M472.3,11.3C460,2.2,435.3-3.3,416,2.2c-1.8,0,0,3.6,1.8,3.6c12.3,1.8,42.2,12.8,10.5,12.8
	c0,0-369.4,14.6-395.8,51c-24.7,38.3-44,87.4-24.7,89.2c44,9.1,89.7-32.8,137.2-16.4c10.6,3.6,10.6-3.6-1.8-7.3
	c-17.6-5.5-37-10.9-89.7,1.8c-15.8,3.6-19.3,0-1.8-7.3c28.2-12.8,91.5-27.3,153.1-32.8c37-3.6,17.6,52.8-12.3,122
	c-22.9,0-116.1,9.1-88,32.8c7,5.5,21.1,12.8,28.2,14.6c10.5,1.8,3.5-3.6,0-5.5c-7-3.6-19.4-5.5-12.3-12.8c3.5-3.6,8.8,0,12.3,1.8
	c8.8,5.5,35.2,1.8,40.4,7.3c12.3,12.8-1.8,43.7-40.4,87.4c-15.4,20-40.3,49.1-26.4,49.1c31.3,0,88-63.7,110.8-94.6
	c19.4-25.5,15.8-34.6,47.5-36.4c15.8-1.8,21.1,0,24.7-3.6c7-7.3,19.4-27.3,12.3-34.6c-3.5-3.6-12.3-3.6-21.1-3.6
	c-19.6,0-31.5-6.3-20.6-24.6c0.7-1.6,0.8-3.4,0.3-5.1c-0.5-1.7-1.6-3.1-3.1-4c-1.1-6.1,5.4-7.5,5.4-7.5c-3.1-2.4-4.5-6.2-4-8.7
	s6-1.8,6.9-6.3c0.6-3.4-7.3-5.6-5.7-12.1c0,0,0-0.1,0.1-0.1c2.2-4.9,17.6-8.5,20.8-15.2c14.1-21.9,22.9-41.9,29.9-43.7
	c59.8,23.7,86.2,23.7,109.1,18.2c10.5-3.6,12.3-7.3,0-5.4c-25.5,2.5-48.5-5.9-70.9-16c40.8-3.5,100.3-9,106-11.3
	C461.8,76.8,497,31.3,472.3,11.3"/>
</svg>
