<svg id="Capa_1" data-name="Capa 1" xmlns="http://www.w3.org/2000/svg" viewBox="0 0 144.03 144.03"><defs><style>.cls-1{fill:#1d1d1d;}</style></defs><path class="cls-1" d="M49.64,89.52A8.15,8.15,0,0,1,43,86.58c-2.28-2.69-2.53-6.44-2.53-14.6s.25-11.9,2.53-14.6a8.14,8.14,0,0,1,6.69-2.93,8.52,8.52,0,0,1,6.11,2.28c1.72,1.71,2.53,4.24,2.69,7.18H53.06c-.08-1.88-.41-4.65-3.34-4.65a2.8,2.8,0,0,0-2.53,1.3C46.13,62.2,46,65.7,46,72s.16,9.79,1.22,11.42a2.81,2.81,0,0,0,2.53,1.31c2.36,0,3.34-2,3.34-4.41V74.92H49.72V70.51h8.81v9.55C58.44,86.25,54.77,89.52,49.64,89.52Z" transform="translate(-2.99 -2.99)"/><path class="cls-1" d="M81,89.11V67.66L76.39,81.77h-3L68.8,67.9V89.11H63.42V54.77h4.89L75,72.8l6.61-18H86.5V89.11Z" transform="translate(-2.99 -2.99)"/><path class="cls-1" d="M100.85,75.65H97.59V89.11H92.21V54.77h8.64c6.2,0,8.81,3.27,8.81,10.44S107.05,75.65,100.85,75.65Zm-.16-16h-3V70.84h3c2.94,0,3.59-2,3.59-5.55S103.54,59.67,100.69,59.67Z" transform="translate(-2.99 -2.99)"/><path class="cls-1" d="M75,3a72,72,0,1,0,72,72A72.07,72.07,0,0,0,75,3Zm0,139.29a67.37,67.37,0,1,1,67.36-67.36A67.43,67.43,0,0,1,75,142.28Z" transform="translate(-2.99 -2.99)"/></svg>