<svg id="Capa_1" data-name="Capa 1" xmlns="http://www.w3.org/2000/svg" viewBox="0 0 144.03 144.03"><defs><style>.cls-1{fill:#1d1d1d;}</style></defs><path class="cls-1" d="M34.55,89.11v-15H27.86v15H22.48V54.77h5.38V69.29h6.69V54.77h5.38V89.11Z" transform="translate(-2.99 -2.99)"/><path class="cls-1" d="M59.5,89.11l-1.38-6.77h-8l-1.39,6.77H43l8.48-34.34h5.3l8.32,34.34Zm-5.38-26L51.19,77.45h5.87Z" transform="translate(-2.99 -2.99)"/><path class="cls-1" d="M82,87.31a8,8,0,0,1-6,2.21,8.15,8.15,0,0,1-6.69-2.94c-2.28-2.69-2.53-6.44-2.53-14.6s.25-11.9,2.53-14.6a8.14,8.14,0,0,1,6.69-2.93,8.2,8.2,0,0,1,6,2.2,10.16,10.16,0,0,1,2.77,7.26H79.49a7.14,7.14,0,0,0-.82-3.35,2.76,2.76,0,0,0-2.53-1.22,2.8,2.8,0,0,0-2.53,1.31c-1.06,1.63-1.22,5.13-1.22,11.41s.16,9.79,1.22,11.42a2.8,2.8,0,0,0,2.53,1.31,2.74,2.74,0,0,0,2.53-1.23,7.32,7.32,0,0,0,.82-3.34h5.38C84.79,83.07,83.81,85.77,82,87.31Z" transform="translate(-2.99 -2.99)"/><path class="cls-1" d="M103.87,87.31a8,8,0,0,1-6,2.21,8.15,8.15,0,0,1-6.69-2.94C89,83.89,88.7,80.14,88.7,72s.25-11.9,2.53-14.6A9.22,9.22,0,0,1,104,56.65a10.21,10.21,0,0,1,2.78,7.26h-5.39a7,7,0,0,0-.81-3.35,3.16,3.16,0,0,0-5.06.09c-1.06,1.63-1.22,5.13-1.22,11.41s.16,9.79,1.22,11.42A2.79,2.79,0,0,0,98,84.79a2.75,2.75,0,0,0,2.53-1.23,7.2,7.2,0,0,0,.81-3.34h5.39A10.12,10.12,0,0,1,103.87,87.31Z" transform="translate(-2.99 -2.99)"/><path class="cls-1" d="M119.86,75.65h-3.27V89.11h-5.38V54.77h8.65c6.19,0,8.8,3.27,8.8,10.44S126.14,75.65,119.86,75.65Zm-.17-16h-3V70.84h3c2.94,0,3.59-2,3.59-5.55S122.63,59.67,119.69,59.67Z" transform="translate(-2.99 -2.99)"/><path class="cls-1" d="M75,3a72,72,0,1,0,72,72A72.07,72.07,0,0,0,75,3Zm0,139.29a67.37,67.37,0,1,1,67.36-67.36A67.43,67.43,0,0,1,75,142.28Z" transform="translate(-2.99 -2.99)"/></svg>