<svg id="Capa_1" data-name="Capa 1" xmlns="http://www.w3.org/2000/svg" viewBox="0 0 144.03 144.03"><defs><style>.cls-1{fill:#1d1d1d;}</style></defs><path class="cls-1" d="M142.8,50.44a2.12,2.12,0,1,0-4,1.49,68.43,68.43,0,0,1,4,20.84H125.35A50.24,50.24,0,0,0,109,37.71a90.37,90.37,0,0,0,17.69-6.78A71.5,71.5,0,0,1,135,43.25a2.09,2.09,0,0,0,3.72-1.9,70.2,70.2,0,1,0,4.05,9.09ZM123.7,27.62h0a87,87,0,0,1-18,6.54c-4-11.5-9.5-20.26-16-25.55A67.71,67.71,0,0,1,123.7,27.62ZM77.07,7.12c4.54.66,9.09,3.31,13.14,7.77A55.06,55.06,0,0,1,100,31.1a50.15,50.15,0,0,0-22.9-6.62Zm-4.22,0V24.48A50.12,50.12,0,0,0,50,31.1,57.52,57.52,0,0,1,59.7,14.89C63.76,10.43,68.3,7.78,72.85,7.12ZM60.2,8.61C53.83,13.9,48.29,22.66,44.33,34.16a87,87,0,0,1-18-6.54A68.22,68.22,0,0,1,60.2,8.61ZM23.41,30.85A88.69,88.69,0,0,0,41.1,37.63,50.19,50.19,0,0,0,24.73,72.68H7.2A67.48,67.48,0,0,1,23.41,30.85ZM26.3,122a88.84,88.84,0,0,1,18-6.53c4,11.49,9.5,20.17,15.87,25.55A67.71,67.71,0,0,1,26.3,122Zm46.55,20.51c-4.55-.67-9.09-3.31-13.15-7.78A55.12,55.12,0,0,1,50,118.49a49.74,49.74,0,0,0,22.9,6.61ZM34.65,97.32a2.13,2.13,0,0,0-3.72,2.07,51.57,51.57,0,0,0,10,12.65,87.43,87.43,0,0,0-17.61,6.78A67.49,67.49,0,0,1,7.12,77H24.57A48.92,48.92,0,0,0,26.8,90a2.12,2.12,0,1,0,4.05-1.24,45.68,45.68,0,0,1-2.15-13.8,46.49,46.49,0,1,1,5.95,22.4Zm42.42,45.15V125.1a50.14,50.14,0,0,0,22.9-6.61,57.32,57.32,0,0,1-9.76,16.2C86.16,139.16,81.7,141.8,77.07,142.47ZM89.72,141c6.36-5.29,11.9-14.06,15.87-25.55a87.22,87.22,0,0,1,18,6.53A67.42,67.42,0,0,1,89.72,141Zm36.87-22.24A88.69,88.69,0,0,0,108.9,112,50.24,50.24,0,0,0,125.27,76.9h17.44A66.89,66.89,0,0,1,126.59,118.74Z" transform="translate(-2.99 -2.99)"/><path class="cls-1" d="M104.85,79.3h-4a2.15,2.15,0,0,0,0,4.3h1.9v16.78a2.15,2.15,0,0,0,4.3,0V81.45A2.26,2.26,0,0,0,104.85,79.3Z" transform="translate(-2.99 -2.99)"/><path class="cls-1" d="M50.61,79.38a7.61,7.61,0,1,0,0,15.21,2.66,2.66,0,0,0,.83-.08,16.08,16.08,0,0,1-3.48,4,2.11,2.11,0,0,0-.41,3,2,2,0,0,0,1.65.83,2.2,2.2,0,0,0,1.24-.42A21,21,0,0,0,58,88.23a6.06,6.06,0,0,0,.08-1.16A7.41,7.41,0,0,0,50.61,79.38Zm0,11A3.39,3.39,0,1,1,54,87,3.36,3.36,0,0,1,50.61,90.38Z" transform="translate(-2.99 -2.99)"/><path class="cls-1" d="M87.73,79a7.59,7.59,0,0,0-7.6,7.61v8.76a7.61,7.61,0,1,0,15.21,0V86.58A7.69,7.69,0,0,0,87.73,79ZM91,95.26a3.39,3.39,0,1,1-6.78,0V86.49a3.39,3.39,0,1,1,6.78,0Z" transform="translate(-2.99 -2.99)"/><path class="cls-1" d="M69.13,79a7.59,7.59,0,0,0-7.61,7.61v8.76a7.61,7.61,0,0,0,15.22,0V86.58A7.59,7.59,0,0,0,69.13,79Zm3.39,16.29a3.39,3.39,0,1,1-6.78,0V86.49a3.39,3.39,0,1,1,6.78,0Z" transform="translate(-2.99 -2.99)"/><path class="cls-1" d="M51.11,71a2.14,2.14,0,0,0,2.15-2.15V49.2a2.15,2.15,0,1,0-4.3,0V68.88A2.19,2.19,0,0,0,51.11,71Z" transform="translate(-2.99 -2.99)"/><path class="cls-1" d="M65.57,71c4,0,7.36-2.56,7.94-6,.5-2.65-.74-6-5.54-7.78-2.48-.91-4.79-1.9-5.45-2.23a1.79,1.79,0,0,1-.67-1.65,2.41,2.41,0,0,1,1.82-1.9,6.56,6.56,0,0,1,5.71,1.32,2.11,2.11,0,0,0,2.73-3.23c-.17-.16-4.47-3.72-9.68-2.14a6.66,6.66,0,0,0-4.79,5.29,6,6,0,0,0,2.64,5.87c.09.08.17.08.33.16s2.81,1.24,5.87,2.4c2,.74,3.06,1.82,2.82,3.06a3.77,3.77,0,0,1-3.81,2.56A7.07,7.07,0,0,1,60.2,64.5a2.11,2.11,0,1,0-3.14,2.81A11.44,11.44,0,0,0,65.57,71Z" transform="translate(-2.99 -2.99)"/><path class="cls-1" d="M89,47.14a12,12,0,1,0,12,12A12,12,0,0,0,89,47.14Zm0,19.67A7.77,7.77,0,1,1,96.74,59,7.76,7.76,0,0,1,89,66.81Z" transform="translate(-2.99 -2.99)"/></svg>