<svg id="Capa_1" data-name="Capa 1" xmlns="http://www.w3.org/2000/svg" viewBox="0 0 144.03 144.03"><defs><style>.cls-1{fill:#1d1d1d;}</style></defs><path class="cls-1" d="M12.94,63.58c0-1.14,1.38-1.71,2.77-1.71s2.77.49,2.77,1.71v8.57l6.69-9.46a1.72,1.72,0,0,1,1.47-.82c1.38,0,3.26,1.47,3.26,2.85a2.11,2.11,0,0,1-.33,1.06L23.7,73.12,31,84.38a1.66,1.66,0,0,1,.25.9c0,1.38-1.72,2.77-3.35,2.77A2.13,2.13,0,0,1,26,87l-6.12-9.3-1.47,2v6.44c0,1.14-1.39,1.71-2.77,1.71s-2.78-.57-2.78-1.71V63.58Z" transform="translate(-2.99 -2.99)"/><path class="cls-1" d="M33.41,79.73V70.27c0-6.12,3.83-8.4,8.72-8.4s8.73,2.28,8.73,8.4v9.46c0,6.12-3.83,8.4-8.73,8.4S33.41,85.85,33.41,79.73Zm12-9.46c0-2.45-1.23-3.59-3.19-3.59S39,67.82,39,70.27v9.46c0,2.45,1.15,3.59,3.18,3.59s3.19-1.14,3.19-3.59Z" transform="translate(-2.99 -2.99)"/><path class="cls-1" d="M66.19,81c0-4.32-11.25-3.58-11.25-11.9,0-5.3,4.65-7.34,9.13-7.34,1.88,0,7.1.32,7.1,3.1,0,1-.66,2.93-2.21,2.93-1.3,0-1.95-1.38-4.89-1.38-2.53,0-3.59,1.06-3.59,2.12,0,3.58,11.26,2.85,11.26,11.82,0,5.14-3.75,7.91-8.89,7.91-4.65,0-8.57-2.28-8.57-4.65,0-1.22,1.07-3,2.45-3,1.71,0,2.77,2.61,6,2.61C64.4,83.32,66.19,82.67,66.19,81Z" transform="translate(-2.99 -2.99)"/><path class="cls-1" d="M88.21,76.55H81.12v9.62c0,1.14-1.39,1.72-2.78,1.72s-2.77-.58-2.77-1.72V63.5c0-1.14,1.39-1.71,2.77-1.71s2.78.49,2.78,1.71v8.73h7.09V63.5c0-1.14,1.39-1.71,2.77-1.71s2.78.49,2.78,1.71V86.17c0,1.14-1.39,1.72-2.78,1.72s-2.77-.58-2.77-1.72Z" transform="translate(-2.99 -2.99)"/><path class="cls-1" d="M104.28,72.72h5.3c1.06,0,1.71,1.06,1.71,2.2,0,1-.49,2.12-1.71,2.12h-5.3v6h9.54c1.06,0,1.71,1.15,1.71,2.45,0,1.14-.49,2.37-1.71,2.37H101.1c-1.23,0-2.45-.58-2.45-1.72V63.58c0-1.14,1.22-1.71,2.45-1.71h12.64c1.14,0,1.71,1.22,1.71,2.36,0,1.31-.57,2.45-1.71,2.45H104.2v6Z" transform="translate(-2.99 -2.99)"/><path class="cls-1" d="M119,63.58a1.67,1.67,0,0,1,1.71-1.71H128c4.89,0,8.73,1.79,8.73,7.58,0,4-1.8,6.28-4.32,7.26l4.32,7.91a1.13,1.13,0,0,1,.16.66c0,1.38-1.88,2.85-3.51,2.85a1.82,1.82,0,0,1-1.79-1.06l-4.89-9.46h-2.37v8.56c0,1.14-1.39,1.72-2.77,1.72s-2.77-.58-2.77-1.72V63.58Zm5.54,3.18v6.61H128c2,0,3.18-.82,3.18-3.34S130,66.68,128,66.68H124.5Z" transform="translate(-2.99 -2.99)"/><path class="cls-1" d="M75,3a72,72,0,1,0,72,72A72.07,72.07,0,0,0,75,3Zm0,139.29a67.37,67.37,0,1,1,67.36-67.36A67.43,67.43,0,0,1,75,142.28Z" transform="translate(-2.99 -2.99)"/><path class="cls-1" d="M83,102H67a1.29,1.29,0,0,0-1.14.66,1.36,1.36,0,0,0,0,1.38l8,13.87a1.32,1.32,0,0,0,2.28,0l8-13.87a1.36,1.36,0,0,0,0-1.38A1.29,1.29,0,0,0,83,102Zm-8,12.48-5.63-9.78H80.71Z" transform="translate(-2.99 -2.99)"/><path class="cls-1" d="M67,47.92H83a1.29,1.29,0,0,0,1.14-.65,1.38,1.38,0,0,0,0-1.39L76.14,32a1.44,1.44,0,0,0-2.36,0l-8,13.86a1.43,1.43,0,0,0,0,1.39A1.45,1.45,0,0,0,67,47.92Zm8-12.47,5.63,9.78H69.29Z" transform="translate(-2.99 -2.99)"/><path class="cls-1" d="M46.46,69.05a1.32,1.32,0,0,0,1.14-.66l8-13.86a1.43,1.43,0,0,0,0-1.39,1.31,1.31,0,0,0-1.14-.65h-16a1.32,1.32,0,0,0-1.14.65,1.43,1.43,0,0,0,0,1.39l8,13.86A1.23,1.23,0,0,0,46.46,69.05Zm5.62-13.87L46.46,65l-5.63-9.79Z" transform="translate(-2.99 -2.99)"/><path class="cls-1" d="M102.4,81.52l-8,13.87a1.43,1.43,0,0,0,0,1.39,1.31,1.31,0,0,0,1.14.65h16a1.32,1.32,0,0,0,1.14-.65,1.43,1.43,0,0,0,0-1.39l-8-13.87A1.38,1.38,0,0,0,102.4,81.52ZM97.92,94.74,103.54,85l5.63,9.79Z" transform="translate(-2.99 -2.99)"/><path class="cls-1" d="M47.6,81.52a1.33,1.33,0,0,0-2.29,0l-8,13.87a1.43,1.43,0,0,0,0,1.39,1.32,1.32,0,0,0,1.14.65h16a1.31,1.31,0,0,0,1.14-.65,1.43,1.43,0,0,0,0-1.39ZM40.75,94.74,46.37,85,52,94.74Z" transform="translate(-2.99 -2.99)"/><path class="cls-1" d="M100.53,74.27,88.38,53.14a1.33,1.33,0,0,0-1.15-.65H62.77a1.33,1.33,0,0,0-1.15.65L49.47,74.27a1.41,1.41,0,0,0,0,1.38L61.62,96.78a1.33,1.33,0,0,0,1.15.65H87.15a1.31,1.31,0,0,0,1.14-.65l12.16-21.13A1.24,1.24,0,0,0,100.53,74.27ZM86.42,94.74H63.58L52.16,75,63.58,55.26H86.42L97.84,75Z" transform="translate(-2.99 -2.99)"/><path class="cls-1" d="M122.14,47.76a5,5,0,0,0-4.32-2.53H92.13L79.32,23a5,5,0,0,0-8.64,0L57.87,45.23H32.18a5,5,0,0,0-4.32,2.53,4.93,4.93,0,0,0,0,5L40.67,75,27.86,97.26a4.93,4.93,0,0,0,0,5,5,5,0,0,0,4.32,2.53H57.87L70.68,127a5,5,0,0,0,8.64,0l12.81-22.26h25.69a5,5,0,0,0,4.32-2.53,4.93,4.93,0,0,0,0-5L109.33,75l12.81-22.26A4.93,4.93,0,0,0,122.14,47.76Zm-2.37,3.59L106.56,74.27a1.41,1.41,0,0,0,0,1.38l13.21,22.92a2.27,2.27,0,0,1,0,2.28,2.17,2.17,0,0,1-2,1.14H91.31a1.29,1.29,0,0,0-1.14.66L77,125.56a2.25,2.25,0,0,1-3.92,0L59.83,102.65a1.29,1.29,0,0,0-1.14-.66H32.18a2.17,2.17,0,0,1-1.95-1.14,2.27,2.27,0,0,1,0-2.28L43.44,75.65a1.41,1.41,0,0,0,0-1.38L30.23,51.35a2.27,2.27,0,0,1,0-2.28,2.18,2.18,0,0,1,1.95-1.15H58.69a1.29,1.29,0,0,0,1.14-.65L73,24.35a2.25,2.25,0,0,1,3.92,0L90.17,47.27a1.29,1.29,0,0,0,1.14.65h26.51a2.18,2.18,0,0,1,2,1.15A2.27,2.27,0,0,1,119.77,51.35Z" transform="translate(-2.99 -2.99)"/><path class="cls-1" d="M111.54,52.49h-16a1.31,1.31,0,0,0-1.14.65,1.43,1.43,0,0,0,0,1.39l8,13.86a1.32,1.32,0,0,0,2.29,0l8-13.86a1.43,1.43,0,0,0,0-1.39A1.22,1.22,0,0,0,111.54,52.49Zm-8,12.48-5.62-9.79h11.33Z" transform="translate(-2.99 -2.99)"/></svg>