<?xml version="1.0" encoding="utf-8"?>
<!-- Generator: Adobe Illustrator 26.0.1, SVG Export Plug-In . SVG Version: 6.00 Build 0)  -->
<svg version="1.1" id="Capa_1" xmlns="http://www.w3.org/2000/svg" xmlns:xlink="http://www.w3.org/1999/xlink" x="0px" y="0px"
	 viewBox="0 0 19 19" style="enable-background:new 0 0 19 19;" xml:space="preserve">
<style type="text/css">
	.st0{fill:#FFFFFF;}
</style>
<g>
	<path class="st0" d="M9.5,1.3c4.5,0,8.2,3.7,8.2,8.2c0,4-2.9,7.5-6.9,8.1c0,0-0.7,0.1-1.4,0.1c-0.4,0-0.8,0-1.1-0.1
		c-4-0.6-6.9-4-6.9-8.1C1.3,5,5,1.3,9.5,1.3 M9.5,0.3c-5.1,0-9.2,4.1-9.2,9.2c0,4.6,3.3,8.4,7.7,9.1c0.4,0.1,0.9,0.1,1.3,0.1
		c0.8,0,1.6-0.1,1.6-0.1c4.4-0.7,7.7-4.5,7.7-9.1C18.7,4.4,14.6,0.3,9.5,0.3L9.5,0.3z"/>
	<g>
		<path class="st0" d="M13.1,12.2l0.4-2.7h-2.5V7.8c0-0.7,0.4-1.4,1.5-1.4h1.2V4.1c0,0-1-0.2-2-0.2c-2.1,0-3.5,1.3-3.5,3.6v2H5.8
			v2.7h2.3v6.4c0.5,0.1,1,0.1,1.4,0.1c0.5,0,1,0,1.4-0.1v-6.4H13.1z"/>
	</g>
</g>
</svg>
