<?xml version="1.0" encoding="utf-8"?>
<!-- Generator: Adobe Illustrator 26.0.1, SVG Export Plug-In . SVG Version: 6.00 Build 0)  -->
<svg version="1.1" id="Capa_1" xmlns="http://www.w3.org/2000/svg" xmlns:xlink="http://www.w3.org/1999/xlink" x="0px" y="0px"
	 viewBox="0 0 30 235" style="enable-background:new 0 0 30 235;" xml:space="preserve">
<style type="text/css">
	.st0{fill:#DA3638;}
</style>
<g>
	<path class="st0" d="M19.4,74.5h2.2v10.7H7.3V74.8h2.2v7.8h3.7v-6.9h2.2v6.9h4V74.5z"/>
	<path class="st0" d="M23.1,56.4c0.6,0.5,1,1,1.3,1.7c0.3,0.6,0.4,1.3,0.4,2.1c0,1-0.2,1.9-0.7,2.7c-0.4,0.8-1.2,1.8-2.3,2.8
		c-0.1,1.3-0.5,2.5-1.2,3.6s-1.5,1.9-2.6,2.5c-1.1,0.6-2.3,0.9-3.6,0.9c-1.4,0-2.7-0.3-3.8-1c-1.1-0.7-2-1.6-2.6-2.8s-1-2.5-1-4
		c0-1.5,0.3-2.8,1-4c0.6-1.2,1.5-2.1,2.6-2.8c1.1-0.7,2.4-1,3.8-1c1.1,0,2.2,0.2,3.1,0.7s1.8,1.1,2.5,1.9c0.7,0.8,1.2,1.7,1.5,2.8
		c0.4-0.4,0.7-0.8,0.9-1.2c0.2-0.4,0.3-0.8,0.3-1.2c0-0.9-0.4-1.8-1.1-2.5L23.1,56.4z M17.1,69.3c0.8-0.4,1.4-1,1.8-1.8
		c0.4-0.8,0.6-1.6,0.6-2.6s-0.2-1.8-0.6-2.6s-1-1.4-1.8-1.8c-0.8-0.4-1.6-0.7-2.6-0.7s-1.8,0.2-2.6,0.7c-0.8,0.4-1.4,1-1.8,1.8
		s-0.6,1.6-0.6,2.6s0.2,1.8,0.6,2.6c0.4,0.8,1,1.4,1.8,1.8c0.8,0.4,1.6,0.7,2.6,0.7S16.3,69.7,17.1,69.3z"/>
	<path class="st0" d="M20.2,52.8c-1.1,1.1-2.7,1.7-4.8,1.7H7.3v-2.7h8c2.8,0,4.2-1.2,4.2-3.6c0-2.4-1.4-3.6-4.2-3.6h-8v-2.6h8.1
		c2.1,0,3.7,0.5,4.8,1.6c1.1,1.1,1.7,2.6,1.7,4.6S21.3,51.7,20.2,52.8z"/>
	<path class="st0" d="M7.3,38.2v-2.7h14.3v2.7H7.3z"/>
	<path class="st0" d="M7.9,22.5c0.4-0.9,1-1.6,1.8-2.1c0.8-0.5,1.7-0.7,2.7-0.7c1,0,1.9,0.2,2.7,0.7c0.8,0.5,1.4,1.2,1.8,2.1
		s0.6,2,0.6,3.2V29h4.1v2.7H7.3v-5.9C7.3,24.5,7.5,23.4,7.9,22.5z M14.5,23.2c-0.5-0.6-1.2-0.9-2.1-0.9c-0.9,0-1.6,0.3-2.1,0.9
		c-0.5,0.6-0.7,1.5-0.7,2.6V29h5.7v-3.1C15.3,24.7,15,23.8,14.5,23.2z"/>
	<path class="st0" d="M20.9,14c-0.6,1.2-1.5,2.1-2.6,2.8c-1.1,0.7-2.4,1-3.8,1c-1.4,0-2.7-0.3-3.8-1c-1.1-0.7-2-1.6-2.6-2.8
		s-1-2.5-1-4c0-1.5,0.3-2.8,1-4C8.7,5,9.6,4,10.7,3.4c1.1-0.7,2.4-1,3.8-1c1.4,0,2.7,0.3,3.8,1c1.1,0.7,2,1.6,2.6,2.8
		c0.6,1.2,1,2.5,1,4C21.8,11.6,21.5,12.9,20.9,14z M18.9,7.5c-0.4-0.8-1-1.4-1.8-1.8c-0.8-0.4-1.6-0.7-2.6-0.7s-1.8,0.2-2.6,0.7
		c-0.8,0.4-1.4,1-1.8,1.8s-0.6,1.6-0.6,2.6s0.2,1.8,0.6,2.6c0.4,0.8,1,1.4,1.8,1.8c0.8,0.4,1.6,0.7,2.6,0.7s1.8-0.2,2.6-0.7
		c0.8-0.4,1.4-1,1.8-1.8c0.4-0.8,0.6-1.6,0.6-2.6S19.3,8.3,18.9,7.5z"/>
</g>
</svg>
