<?xml version="1.0" encoding="utf-8"?>
<!-- Generator: Adobe Illustrator 26.0.1, SVG Export Plug-In . SVG Version: 6.00 Build 0)  -->
<svg version="1.1" id="Capa_1" xmlns="http://www.w3.org/2000/svg" xmlns:xlink="http://www.w3.org/1999/xlink" x="0px" y="0px"
	 viewBox="0 0 30 235" style="enable-background:new 0 0 30 235;" xml:space="preserve">
<style type="text/css">
	.st0{fill:#DA3638;}
</style>
<g>
	<path class="st0" d="M14.1,223.3v-2.5h5.7c0.6,0.7,1,1.6,1.4,2.6s0.5,2,0.5,3c0,1.5-0.3,2.8-1,4c-0.6,1.2-1.5,2.1-2.6,2.8
		c-1.1,0.7-2.4,1-3.8,1c-1.4,0-2.7-0.3-3.8-1c-1.1-0.7-2-1.6-2.6-2.8c-0.6-1.2-1-2.5-1-4c0-1.2,0.2-2.3,0.6-3.3c0.4-1,1-1.8,1.7-2.5
		l1.6,1.7c-1.1,1.1-1.6,2.4-1.6,4c0,1,0.2,1.9,0.6,2.7c0.4,0.8,1,1.4,1.8,1.8c0.8,0.4,1.6,0.7,2.6,0.7c1,0,1.8-0.2,2.6-0.7
		c0.8-0.4,1.4-1.1,1.8-1.8c0.4-0.8,0.7-1.7,0.7-2.7c0-1.1-0.2-2.1-0.7-2.9H14.1z"/>
	<path class="st0" d="M19.2,206.5h2.2v10.7H7.1v-10.5h2.2v7.8h3.7v-6.9h2.2v6.9h4V206.5z"/>
	<path class="st0" d="M21.2,202.3c-0.3,1-0.7,1.8-1.2,2.4l-2.1-0.9c0.5-0.6,0.8-1.3,1.1-2.2c0.3-0.9,0.4-1.7,0.4-2.6
		c0-1.1-0.2-1.9-0.5-2.4c-0.3-0.5-0.8-0.8-1.4-0.8c-0.4,0-0.7,0.1-1,0.4c-0.3,0.3-0.5,0.7-0.6,1.1s-0.3,1.1-0.5,1.8
		c-0.3,1.1-0.5,2-0.8,2.7c-0.3,0.7-0.7,1.3-1.2,1.7s-1.3,0.7-2.2,0.7c-0.8,0-1.5-0.2-2.2-0.6c-0.6-0.4-1.2-1.1-1.5-1.9
		c-0.4-0.9-0.6-1.9-0.6-3.2c0-0.9,0.1-1.7,0.3-2.6c0.2-0.8,0.5-1.6,0.9-2.2l2.1,0.8c-0.4,0.6-0.6,1.3-0.8,2c-0.2,0.7-0.3,1.3-0.3,2
		c0,1.1,0.2,1.8,0.5,2.3c0.4,0.5,0.8,0.8,1.4,0.8c0.4,0,0.7-0.1,1-0.4c0.3-0.3,0.5-0.7,0.6-1.1s0.3-1.1,0.5-1.8
		c0.2-1.1,0.5-1.9,0.8-2.6s0.7-1.3,1.2-1.8c0.5-0.5,1.3-0.7,2.2-0.7c0.8,0,1.5,0.2,2.1,0.6s1.2,1.1,1.5,2s0.6,1.9,0.6,3.2
		C21.6,200.2,21.5,201.3,21.2,202.3z"/>
	<path class="st0" d="M9.4,188v4.7H7.1v-12.2h2.3v4.7h12.1v2.7H9.4z"/>
	<path class="st0" d="M7.1,178.6v-2.7h14.3v2.7H7.1z"/>
	<path class="st0" d="M3.1,164.3v-3l2.8,3.6v2.2L3.1,164.3z M20.7,169.3c-0.6,1.2-1.5,2.1-2.6,2.8c-1.1,0.7-2.4,1-3.8,1
		c-1.4,0-2.7-0.3-3.8-1c-1.1-0.7-2-1.6-2.6-2.8c-0.6-1.2-1-2.5-1-4c0-1.5,0.3-2.8,1-4c0.6-1.2,1.5-2.1,2.6-2.8c1.1-0.7,2.4-1,3.8-1
		c1.4,0,2.7,0.3,3.8,1c1.1,0.7,2,1.6,2.6,2.8c0.6,1.2,1,2.5,1,4C21.6,166.8,21.3,168.1,20.7,169.3z M18.7,162.8
		c-0.4-0.8-1-1.4-1.8-1.8c-0.8-0.4-1.6-0.7-2.6-0.7s-1.8,0.2-2.6,0.7c-0.8,0.4-1.4,1-1.8,1.8s-0.6,1.6-0.6,2.6s0.2,1.8,0.6,2.6
		c0.4,0.8,1,1.4,1.8,1.8c0.8,0.4,1.6,0.7,2.6,0.7s1.8-0.2,2.6-0.7c0.8-0.4,1.4-1,1.8-1.8c0.4-0.8,0.6-1.6,0.6-2.6
		S19.1,163.5,18.7,162.8z"/>
	<path class="st0" d="M7.1,142.1h14.3v2.2l-9.7,7.9h9.7v2.6H7.1v-2.2l9.7-7.9H7.1V142.1z"/>
	<path class="st0" d="M7.1,132.6v-6.3c0-1.5,0.3-2.9,0.9-4.1s1.4-2.1,2.5-2.8s2.3-1,3.8-1c1.4,0,2.7,0.3,3.8,1
		c1.1,0.7,1.9,1.6,2.5,2.8c0.6,1.2,0.9,2.5,0.9,4.1v6.3H7.1z M19.2,126.4c0-1.1-0.2-2-0.6-2.8c-0.4-0.8-1-1.4-1.7-1.8
		s-1.6-0.6-2.6-0.6c-1,0-1.8,0.2-2.6,0.6c-0.7,0.4-1.3,1-1.7,1.8c-0.4,0.8-0.6,1.7-0.6,2.8v3.5h9.8V126.4z"/>
	<path class="st0" d="M19.2,104.9h2.2v10.7H7.1v-10.5h2.2v7.8h3.7v-6.9h2.2v6.9h4V104.9z"/>
	<path class="st0" d="M20.7,93.6c-0.6,1.2-1.5,2.1-2.6,2.7c-1.1,0.7-2.4,1-3.8,1c-1.4,0-2.7-0.3-3.8-1c-1.1-0.7-2-1.6-2.6-2.8
		c-0.6-1.2-1-2.5-1-3.9c0-1.2,0.2-2.2,0.6-3.2c0.4-1,1-1.8,1.8-2.5l1.6,1.7c-1.1,1-1.7,2.3-1.7,3.8c0,1,0.2,1.9,0.6,2.6
		s1,1.4,1.8,1.8c0.8,0.4,1.6,0.7,2.6,0.7s1.8-0.2,2.6-0.7c0.8-0.4,1.4-1,1.8-1.8s0.6-1.7,0.6-2.6c0-1.5-0.6-2.8-1.7-3.8l1.6-1.7
		c0.8,0.7,1.4,1.5,1.8,2.5c0.4,1,0.6,2.1,0.6,3.2C21.6,91.1,21.3,92.4,20.7,93.6z"/>
	<path class="st0" d="M18.1,72.4v7.2l3.3,1.4v2.7L7.1,77.3v-2.6l14.3-6.5V71L18.1,72.4z M16,73.3L9.8,76l6.3,2.7V73.3z"/>
	<path class="st0" d="M7.1,66.4v-2.7h12.1v-7.5h2.3v10.2H7.1z"/>
	<path class="st0" d="M7.1,54.1v-2.7h14.3v2.7H7.1z"/>
	<path class="st0" d="M7.1,47.6v-6.3c0-1.5,0.3-2.9,0.9-4.1c0.6-1.2,1.4-2.1,2.5-2.8s2.3-1,3.8-1c1.4,0,2.7,0.3,3.8,1
		c1.1,0.7,1.9,1.6,2.5,2.8c0.6,1.2,0.9,2.5,0.9,4.1v6.3H7.1z M19.2,41.5c0-1.1-0.2-2-0.6-2.8s-1-1.4-1.7-1.8
		c-0.7-0.4-1.6-0.6-2.6-0.6c-1,0-1.8,0.2-2.6,0.6c-0.7,0.4-1.3,1-1.7,1.8c-0.4,0.8-0.6,1.7-0.6,2.8v3.5h9.8V41.5z"/>
	<path class="st0" d="M18.1,21.6v7.2l3.3,1.4v2.7L7.1,26.5v-2.6l14.3-6.5v2.8L18.1,21.6z M16,22.5l-6.3,2.7l6.3,2.7V22.5z"/>
	<path class="st0" d="M7.1,15.6V9.3c0-1.5,0.3-2.9,0.9-4.1C8.6,4,9.4,3.1,10.5,2.5s2.3-1,3.8-1c1.4,0,2.7,0.3,3.8,1
		C19.1,3.1,20,4,20.5,5.2c0.6,1.2,0.9,2.5,0.9,4.1v6.3H7.1z M19.2,9.4c0-1.1-0.2-2-0.6-2.8s-1-1.4-1.7-1.8c-0.7-0.4-1.6-0.6-2.6-0.6
		c-1,0-1.8,0.2-2.6,0.6c-0.7,0.4-1.3,1-1.7,1.8C9.6,7.4,9.4,8.4,9.4,9.4v3.5h9.8V9.4z"/>
</g>
</svg>
