<?xml version="1.0" encoding="utf-8"?>
<!-- Generator: Adobe Illustrator 26.0.1, SVG Export Plug-In . SVG Version: 6.00 Build 0)  -->
<svg version="1.1" id="Capa_1" xmlns="http://www.w3.org/2000/svg" xmlns:xlink="http://www.w3.org/1999/xlink" x="0px" y="0px"
	 viewBox="0 0 30 235" style="enable-background:new 0 0 30 235;" xml:space="preserve">
<style type="text/css">
	.st0{fill:#DA3638;}
</style>
<g>
	<path class="st0" d="M7.1,223.2h14.3v2.2l-9.7,7.9h9.7v2.6H7.1v-2.2l9.7-7.9H7.1V223.2z"/>
	<path class="st0" d="M20,217.8c-1.1,1.1-2.7,1.7-4.8,1.7H7.1v-2.7h8c2.8,0,4.2-1.2,4.2-3.6c0-2.4-1.4-3.6-4.2-3.6h-8v-2.6h8.1
		c2.1,0,3.7,0.5,4.8,1.6c1.1,1.1,1.7,2.6,1.7,4.6S21.1,216.7,20,217.8z"/>
	<path class="st0" d="M19.2,192.5h2.2v10.7H7.1v-10.5h2.2v7.8h3.7v-6.9h2.2v6.9h4V192.5z"/>
	<path class="st0" d="M21.2,188.3c-0.3,1-0.7,1.8-1.2,2.4l-2.1-0.9c0.5-0.6,0.8-1.3,1.1-2.2c0.3-0.9,0.4-1.7,0.4-2.6
		c0-1.1-0.2-1.9-0.5-2.4s-0.8-0.8-1.4-0.8c-0.4,0-0.7,0.1-1,0.4c-0.3,0.3-0.5,0.7-0.6,1.1c-0.2,0.5-0.3,1.1-0.5,1.8
		c-0.3,1.1-0.5,2-0.8,2.7c-0.3,0.7-0.7,1.3-1.2,1.7s-1.3,0.7-2.2,0.7c-0.8,0-1.5-0.2-2.2-0.6c-0.6-0.4-1.2-1.1-1.5-1.9
		c-0.4-0.9-0.6-1.9-0.6-3.2c0-0.9,0.1-1.7,0.3-2.6c0.2-0.8,0.5-1.6,0.9-2.2l2.1,0.8c-0.4,0.6-0.6,1.3-0.8,2c-0.2,0.7-0.3,1.3-0.3,2
		c0,1.1,0.2,1.8,0.5,2.3c0.4,0.5,0.8,0.8,1.4,0.8c0.4,0,0.7-0.1,1-0.4c0.3-0.3,0.5-0.7,0.6-1.1s0.3-1.1,0.5-1.8
		c0.2-1.1,0.5-1.9,0.8-2.6c0.3-0.7,0.7-1.3,1.2-1.8s1.3-0.7,2.2-0.7c0.8,0,1.5,0.2,2.1,0.6s1.2,1.1,1.5,2s0.6,1.9,0.6,3.2
		C21.6,186.2,21.5,187.2,21.2,188.3z"/>
	<path class="st0" d="M9.4,173.9v4.7H7.1v-12.2h2.3v4.7h12.1v2.7H9.4z"/>
	<path class="st0" d="M21.4,155.1l-4.2,2.9c0,0.1,0,0.3,0,0.6v3.2h4.2v2.7H7.1v-5.9c0-1.2,0.2-2.3,0.6-3.2s1-1.6,1.8-2.1
		c0.8-0.5,1.7-0.7,2.7-0.7c1.1,0,2,0.3,2.8,0.8c0.8,0.5,1.4,1.3,1.7,2.3l4.7-3.3V155.1z M10.1,156.1c-0.5,0.6-0.7,1.5-0.7,2.6v3.1
		h5.7v-3.1c0-1.2-0.2-2-0.7-2.6c-0.5-0.6-1.2-0.9-2.1-0.9C11.3,155.2,10.6,155.5,10.1,156.1z"/>
	<path class="st0" d="M20.7,146.8c-0.6,1.2-1.5,2.1-2.6,2.8c-1.1,0.7-2.4,1-3.8,1c-1.4,0-2.7-0.3-3.8-1c-1.1-0.7-2-1.6-2.6-2.8
		s-1-2.5-1-4c0-1.5,0.3-2.8,1-4c0.6-1.2,1.5-2.1,2.6-2.8c1.1-0.7,2.4-1,3.8-1c1.4,0,2.7,0.3,3.8,1c1.1,0.7,2,1.6,2.6,2.8
		c0.6,1.2,1,2.5,1,4C21.6,144.3,21.3,145.6,20.7,146.8z M18.7,140.3c-0.4-0.8-1-1.4-1.8-1.8c-0.8-0.4-1.6-0.7-2.6-0.7
		s-1.8,0.2-2.6,0.7c-0.8,0.4-1.4,1-1.8,1.8s-0.6,1.6-0.6,2.6s0.2,1.8,0.6,2.6c0.4,0.8,1,1.4,1.8,1.8c0.8,0.4,1.6,0.7,2.6,0.7
		s1.8-0.2,2.6-0.7c0.8-0.4,1.4-1,1.8-1.8c0.4-0.8,0.6-1.6,0.6-2.6S19.1,141,18.7,140.3z"/>
	<path class="st0" d="M21.2,131.1c-0.3,1-0.7,1.8-1.2,2.4l-2.1-0.9c0.5-0.6,0.8-1.3,1.1-2.2c0.3-0.9,0.4-1.7,0.4-2.6
		c0-1.1-0.2-1.9-0.5-2.4s-0.8-0.8-1.4-0.8c-0.4,0-0.7,0.1-1,0.4c-0.3,0.3-0.5,0.7-0.6,1.1c-0.2,0.5-0.3,1.1-0.5,1.8
		c-0.3,1.1-0.5,2-0.8,2.7c-0.3,0.7-0.7,1.3-1.2,1.7s-1.3,0.7-2.2,0.7c-0.8,0-1.5-0.2-2.2-0.6c-0.6-0.4-1.2-1.1-1.5-1.9
		c-0.4-0.9-0.6-1.9-0.6-3.2c0-0.9,0.1-1.7,0.3-2.6c0.2-0.8,0.5-1.6,0.9-2.2l2.1,0.8c-0.4,0.6-0.6,1.3-0.8,2c-0.2,0.7-0.3,1.3-0.3,2
		c0,1.1,0.2,1.8,0.5,2.3c0.4,0.5,0.8,0.8,1.4,0.8c0.4,0,0.7-0.1,1-0.4c0.3-0.3,0.5-0.7,0.6-1.1s0.3-1.1,0.5-1.8
		c0.2-1.1,0.5-1.9,0.8-2.6c0.3-0.7,0.7-1.3,1.2-1.8s1.3-0.7,2.2-0.7c0.8,0,1.5,0.2,2.1,0.6s1.2,1.1,1.5,2s0.6,1.9,0.6,3.2
		C21.6,129,21.5,130,21.2,131.1z"/>
	<path class="st0" d="M21.2,112.5c-0.3,1-0.7,1.8-1.2,2.4l-2.1-0.9c0.5-0.6,0.8-1.3,1.1-2.2c0.3-0.9,0.4-1.7,0.4-2.6
		c0-1.1-0.2-1.9-0.5-2.4s-0.8-0.8-1.4-0.8c-0.4,0-0.7,0.1-1,0.4c-0.3,0.3-0.5,0.7-0.6,1.1c-0.2,0.5-0.3,1.1-0.5,1.8
		c-0.3,1.1-0.5,2-0.8,2.7c-0.3,0.7-0.7,1.3-1.2,1.7s-1.3,0.7-2.2,0.7c-0.8,0-1.5-0.2-2.2-0.6c-0.6-0.4-1.2-1.1-1.5-1.9
		c-0.4-0.9-0.6-1.9-0.6-3.2c0-0.9,0.1-1.7,0.3-2.6c0.2-0.8,0.5-1.6,0.9-2.2l2.1,0.8c-0.4,0.6-0.6,1.3-0.8,2c-0.2,0.7-0.3,1.3-0.3,2
		c0,1.1,0.2,1.8,0.5,2.3c0.4,0.5,0.8,0.8,1.4,0.8c0.4,0,0.7-0.1,1-0.4c0.3-0.3,0.5-0.7,0.6-1.1s0.3-1.1,0.5-1.8
		c0.2-1.1,0.5-1.9,0.8-2.6c0.3-0.7,0.7-1.3,1.2-1.8s1.3-0.7,2.2-0.7c0.8,0,1.5,0.2,2.1,0.6s1.2,1.1,1.5,2s0.6,1.9,0.6,3.2
		C21.6,110.4,21.5,111.5,21.2,112.5z"/>
	<path class="st0" d="M19.2,90.2h2.2v10.7H7.1V90.4h2.2v7.8h3.7v-6.9h2.2v6.9h4V90.2z"/>
	<path class="st0" d="M21.4,77.8l-4.2,2.9c0,0.1,0,0.3,0,0.6v3.2h4.2v2.7H7.1v-5.9C7.1,80,7.3,79,7.7,78s1-1.6,1.8-2.1
		c0.8-0.5,1.7-0.7,2.7-0.7c1.1,0,2,0.3,2.8,0.8c0.8,0.5,1.4,1.3,1.7,2.3l4.7-3.3V77.8z M10.1,78.8c-0.5,0.6-0.7,1.5-0.7,2.6v3.1h5.7
		v-3.1c0-1.2-0.2-2-0.7-2.6c-0.5-0.6-1.2-0.9-2.1-0.9C11.3,77.9,10.6,78.2,10.1,78.8z"/>
	<path class="st0" d="M7.1,59.1l14.3,6.2V68L7.1,74.2v-2.9l11.1-4.8L7.1,61.8V59.1z"/>
	<path class="st0" d="M7.1,57.6v-2.7h14.3v2.7H7.1z"/>
	<path class="st0" d="M20.7,48.4c-0.6,1.2-1.5,2.1-2.6,2.7s-2.4,1-3.8,1c-1.4,0-2.7-0.3-3.8-1c-1.1-0.7-2-1.6-2.6-2.8s-1-2.5-1-3.9
		c0-1.2,0.2-2.2,0.6-3.2s1-1.8,1.8-2.5l1.6,1.7c-1.1,1-1.7,2.3-1.7,3.8c0,1,0.2,1.9,0.6,2.6c0.4,0.8,1,1.4,1.8,1.8
		c0.8,0.4,1.6,0.7,2.6,0.7s1.8-0.2,2.6-0.7s1.4-1,1.8-1.8c0.4-0.8,0.6-1.7,0.6-2.6c0-1.5-0.6-2.8-1.7-3.8l1.6-1.7
		c0.8,0.7,1.4,1.5,1.8,2.5c0.4,1,0.6,2.1,0.6,3.2C21.6,45.9,21.3,47.2,20.7,48.4z"/>
	<path class="st0" d="M7.1,36.2v-2.7h14.3v2.7H7.1z"/>
	<path class="st0" d="M20.7,26.9c-0.6,1.2-1.5,2.1-2.6,2.8c-1.1,0.7-2.4,1-3.8,1c-1.4,0-2.7-0.3-3.8-1c-1.1-0.7-2-1.6-2.6-2.8
		s-1-2.5-1-4c0-1.5,0.3-2.8,1-4c0.6-1.2,1.5-2.1,2.6-2.8c1.1-0.7,2.4-1,3.8-1c1.4,0,2.7,0.3,3.8,1c1.1,0.7,2,1.6,2.6,2.8
		c0.6,1.2,1,2.5,1,4C21.6,24.4,21.3,25.7,20.7,26.9z M18.7,20.4c-0.4-0.8-1-1.4-1.8-1.8c-0.8-0.4-1.6-0.7-2.6-0.7s-1.8,0.2-2.6,0.7
		c-0.8,0.4-1.4,1-1.8,1.8S9.2,22,9.2,23s0.2,1.8,0.6,2.6c0.4,0.8,1,1.4,1.8,1.8c0.8,0.4,1.6,0.7,2.6,0.7s1.8-0.2,2.6-0.7
		c0.8-0.4,1.4-1,1.8-1.8c0.4-0.8,0.6-1.6,0.6-2.6S19.1,21.2,18.7,20.4z"/>
	<path class="st0" d="M21.2,11.2c-0.3,1-0.7,1.8-1.2,2.4l-2.1-0.9c0.5-0.6,0.8-1.3,1.1-2.2c0.3-0.9,0.4-1.7,0.4-2.6
		c0-1.1-0.2-1.9-0.5-2.4s-0.8-0.8-1.4-0.8c-0.4,0-0.7,0.1-1,0.4c-0.3,0.3-0.5,0.7-0.6,1.1c-0.2,0.5-0.3,1.1-0.5,1.8
		c-0.3,1.1-0.5,2-0.8,2.7c-0.3,0.7-0.7,1.3-1.2,1.7s-1.3,0.7-2.2,0.7c-0.8,0-1.5-0.2-2.2-0.6c-0.6-0.4-1.2-1.1-1.5-1.9
		C7.1,9.9,6.9,8.8,6.9,7.6C6.9,6.7,7,5.8,7.2,5c0.2-0.8,0.5-1.6,0.9-2.2l2.1,0.8c-0.4,0.6-0.6,1.3-0.8,2c-0.2,0.7-0.3,1.3-0.3,2
		c0,1.1,0.2,1.8,0.5,2.3c0.4,0.5,0.8,0.8,1.4,0.8c0.4,0,0.7-0.1,1-0.4c0.3-0.3,0.5-0.7,0.6-1.1s0.3-1.1,0.5-1.8
		c0.2-1.1,0.5-1.9,0.8-2.6c0.3-0.7,0.7-1.3,1.2-1.8s1.3-0.7,2.2-0.7c0.8,0,1.5,0.2,2.1,0.6s1.2,1.1,1.5,2s0.6,1.9,0.6,3.2
		C21.6,9.1,21.5,10.2,21.2,11.2z"/>
</g>
</svg>
